<?xml version="1.0" encoding="UTF-8" standalone="no"?>
<!DOCTYPE svg PUBLIC "-//W3C//DTD SVG 1.1//EN" "http://www.w3.org/Graphics/SVG/1.1/DTD/svg11.dtd">
<svg width="100%" height="100%" viewBox="0 0 969 851" version="1.1" xmlns="http://www.w3.org/2000/svg" xmlns:xlink="http://www.w3.org/1999/xlink" xml:space="preserve" xmlns:serif="http://www.serif.com/" style="fill-rule:evenodd;clip-rule:evenodd;stroke-linejoin:round;stroke-miterlimit:2;">
    <g transform="matrix(0.1,0,0,-0.1,-1426,1533.86)">
        <path d="M15548,15323C15483,15303 15394,15221 15361,15150C15341,15105 15336,15079 15336,15010C15336,14916 15348,14867 15391,14799C15425,14745 15425,14744 15401,14737C15386,14734 15378,14714 15365,14656L15348,14580L15306,14580C15242,14580 15210,14542 15201,14456C15191,14359 15218,14310 15281,14310C15299,14310 15301,14306 15296,14283C15292,14267 15287,14227 15283,14192C15278,14139 15280,14126 15296,14109C15325,14077 15399,14044 15457,14036C15486,14032 15523,14024 15540,14017L15570,14004L15503,13990C15463,13982 15366,13976 15270,13975C15085,13973 15051,13966 14917,13899C14790,13835 14716,13753 14643,13592C14582,13457 14559,13360 14553,13210C14549,13095 14551,13061 14569,12980C14628,12722 14766,12523 14968,12405C15052,12356 15085,12349 15095,12380C15104,12408 15098,12414 15026,12454C14836,12560 14713,12712 14640,12930C14618,12997 14615,13021 14615,13155C14616,13350 14637,13441 14718,13589C14795,13731 14869,13807 14981,13859C15084,13907 15151,13922 15255,13919C15376,13916 15393,13912 15412,13880C15438,13834 15529,13773 15583,13766C15618,13760 15630,13755 15630,13741C15630,13717 15609,13692 15585,13688C15569,13686 15563,13672 15554,13629C15531,13511 15544,13523 15424,13518C15327,13515 15316,13512 15299,13491C15287,13476 15280,13452 15280,13426C15280,13394 15274,13378 15256,13361C15200,13309 15182,13214 15215,13150C15225,13131 15230,13092 15230,13042C15230,12983 15235,12953 15251,12920C15263,12895 15275,12847 15278,12810C15283,12736 15302,12699 15359,12647L15397,12613L15378,12514C15361,12426 15308,12139 15295,12068C15289,12030 15315,12015 15422,11996C15521,11979 15571,11987 15594,12023C15602,12035 15620,12119 15635,12210C15696,12596 15690,12568 15727,12590C15773,12617 15793,12615 15832,12582C15882,12539 15931,12513 15973,12507C16015,12500 16095,12442 16112,12405C16118,12393 16144,12372 16172,12359C16227,12333 16282,12278 16303,12228C16324,12178 16344,12165 16379,12180C16404,12190 16414,12188 16448,12171C16470,12160 16498,12135 16510,12115C16522,12095 16565,12057 16605,12030C16644,12003 16697,11958 16721,11929C16766,11875 17021,11665 17077,11636C17095,11627 17116,11620 17125,11620C17136,11620 17140,11609 17140,11580C17140,11544 17138,11540 17114,11540C17077,11540 16952,11479 16901,11436C16862,11403 16854,11400 16821,11407C16762,11420 16461,11411 16355,11394C16296,11385 16240,11367 16240,11359C16240,11349 16130,11347 16106,11356C16097,11359 16074,11389 16054,11421C15939,11610 15747,11778 15562,11848C15462,11887 15300,11920 15211,11920C15087,11920 14891,11868 14771,11803C14571,11695 14437,11558 14363,11385C14330,11310 14313,11254 14270,11085C14265,11063 14260,10995 14260,10935C14260,10846 14265,10807 14286,10735C14300,10685 14314,10634 14317,10621C14323,10598 14393,10454 14442,10365C14492,10276 14650,10140 14785,10073C15033,9948 15357,9940 15612,10053C15769,10123 15969,10300 16050,10442L16095,10518L16205,10548C16265,10565 16335,10581 16360,10585C16385,10588 16418,10597 16434,10605C16450,10613 16474,10620 16487,10620C16507,10620 16511,10616 16505,10603C16483,10550 16481,10552 16587,10547C16654,10545 16715,10549 16780,10561C16918,10588 17035,10608 17037,10606C17041,10603 17043,10429 17039,10426C17037,10425 16992,10398 16939,10367C16825,10300 16676,10189 16386,9955C16118,9739 16135,9750 16021,9715C15883,9673 15808,9612 15750,9496C15715,9427 15656,9352 15591,9295C15573,9279 15554,9256 15550,9245C15539,9216 15564,9175 15609,9148L15649,9124L15620,9075C15546,8948 15542,8926 15586,8891C15623,8862 15617,8840 15573,8840C15509,8839 15452,8807 15431,8759C15414,8721 15409,8718 15371,8715C15314,8710 15270,8680 15235,8621L15205,8570L15145,8576C15090,8581 15082,8579 15044,8552C15022,8536 14976,8492 14943,8454C14909,8416 14858,8367 14829,8345C14731,8269 14707,8246 14689,8202C14652,8115 14669,8026 14758,7854C14812,7748 14888,7659 14980,7590C15064,7529 15112,7505 15202,7481C15299,7454 15541,7427 15572,7439C15603,7451 15608,7457 15759,7682C15891,7877 15892,7879 15900,7950C15907,8018 15927,8069 15992,8195C16004,8217 16022,8251 16032,8272C16044,8294 16055,8348 16062,8412C16068,8468 16078,8518 16084,8522C16090,8527 16111,8534 16130,8540C16160,8548 16170,8546 16205,8523C16265,8483 16334,8484 16392,8527C16415,8545 16466,8580 16505,8607C16579,8658 16598,8677 16677,8780C16747,8872 16761,8903 16771,8989C16779,9053 16791,9086 16848,9200C16885,9274 16920,9336 16925,9337C16931,9338 16948,9321 16964,9297C16996,9251 17118,9141 17165,9118C17207,9096 17294,9086 17318,9099C17333,9107 17341,9106 17351,9093C17359,9084 17439,9028 17530,8969C17711,8850 17828,8771 18019,8636C18088,8587 18207,8504 18284,8452L18422,8357L18371,8326C18342,8309 18219,8227 18097,8143C17975,8059 17729,7893 17550,7773C17371,7653 17217,7547 17208,7538C17185,7515 17183,7414 17205,7383C17214,7370 17240,7355 17263,7349C17286,7343 17311,7336 17317,7334C17324,7332 17327,7324 17324,7315C17319,7302 17304,7299 17244,7302C17199,7304 17172,7301 17173,7295C17174,7289 17203,7286 17243,7288C17318,7291 17323,7285 17295,7230C17280,7201 17276,7200 17215,7200C17176,7200 17150,7196 17150,7190C17150,7183 17170,7181 17210,7186C17267,7192 17270,7192 17270,7170C17270,7157 17252,7130 17225,7104C17200,7080 17180,7054 17180,7047C17180,7039 17170,7021 17159,7006L17138,6979L17159,6956C17170,6944 17180,6924 17180,6912C17180,6893 17184,6891 17205,6896C17225,6901 17232,6897 17241,6876C17253,6851 17256,6850 17316,6854C17367,6857 17386,6863 17412,6885C17438,6907 17451,6911 17482,6907C17523,6902 17579,6924 17611,6959C17622,6970 17646,6982 17665,6986C17684,6989 17700,6996 17700,7001C17700,7021 17774,7064 17813,7067C17924,7075 17979,7084 17974,7091C17971,7096 17937,7100 17899,7100C17813,7100 17812,7112 17893,7155L17950,7186L18180,7183C18306,7182 18412,7185 18415,7189C18423,7203 18381,7208 18275,7204C18220,7202 18131,7203 18077,7206C17966,7213 17963,7221 18054,7263C18098,7284 18118,7287 18198,7285C18290,7283 18327,7293 18270,7305C18254,7309 18237,7310 18233,7307C18228,7305 18203,7306 18175,7309L18126,7315L18180,7355C18210,7376 18377,7491 18550,7610C18723,7729 18896,7849 18934,7876L19003,7927L19044,7898C19067,7881 19216,7781 19375,7674C19784,7402 19886,7331 19899,7317C19907,7306 19900,7305 19862,7309C19802,7317 19740,7312 19740,7299C19740,7294 19781,7290 19830,7290C19924,7290 19977,7273 20038,7224C20060,7205 20059,7205 19923,7205C19847,7205 19774,7202 19760,7199L19735,7193L19764,7185C19779,7181 19856,7180 19934,7183C20068,7188 20078,7187 20126,7164C20155,7150 20183,7133 20190,7125C20201,7112 20193,7110 20135,7110C20086,7110 20069,7107 20072,7098C20075,7089 20107,7083 20166,7080C20255,7075 20286,7065 20328,7027C20362,6996 20355,6990 20291,6996C20234,7002 20233,7002 20206,6968C20192,6949 20180,6931 20180,6927C20180,6924 20198,6930 20220,6941C20241,6951 20280,6960 20305,6960C20330,6960 20350,6964 20350,6969C20350,6986 20422,6956 20452,6927C20469,6909 20487,6900 20496,6904C20519,6913 20570,6883 20570,6859C20570,6848 20577,6837 20585,6833C20610,6824 20614,6837 20596,6864C20587,6878 20580,6896 20580,6905C20580,6918 20584,6919 20613,6907C20630,6900 20673,6888 20708,6880C20767,6868 20773,6868 20798,6887C20813,6898 20831,6918 20837,6931C20852,6960 20854,7044 20840,7070C20831,7087 20837,7088 20957,7089C21027,7090 21086,7093 21089,7096C21092,7099 21031,7100 20955,7099C20819,7098 20814,7098 20788,7123C20772,7136 20760,7155 20760,7164C20760,7178 20775,7180 20866,7180C20946,7180 20971,7183 20967,7193C20964,7201 20933,7205 20855,7205C20739,7205 20733,7208 20731,7265C20730,7284 20735,7285 20810,7282C20860,7279 20890,7282 20890,7288C20890,7294 20857,7299 20809,7299C20735,7299 20700,7309 20700,7330C20700,7334 20718,7340 20741,7343C20818,7353 20855,7422 20828,7504C20813,7549 20781,7572 20175,7976C19988,8101 19801,8229 19760,8260C19719,8291 19670,8325 19653,8335C19635,8346 19620,8357 19620,8360C19620,8365 19716,8430 19725,8430C19727,8430 19741,8409 19754,8383C19819,8254 19923,8172 20094,8115C20153,8095 20221,8079 20244,8078C20402,8077 20417,8080 20475,8128C20491,8142 20524,8161 20548,8171C20572,8182 20594,8199 20599,8212C20603,8225 20610,8286 20614,8348C20620,8448 20618,8464 20601,8499C20590,8520 20566,8550 20549,8564C20502,8604 20335,8679 20257,8696C20219,8704 20179,8715 20168,8721C20147,8732 20147,8733 20176,8749C20220,8772 20577,9017 20630,9059C20671,9092 20680,9095 20746,9096C20838,9098 20880,9118 20985,9211C21066,9282 21082,9302 21100,9353C21109,9380 21111,9380 21138,9366C21170,9349 21250,9269 21312,9190L21355,9136L21353,9049C21350,8950 21317,8788 21266,8630C21209,8456 21152,8221 21139,8110C21125,7988 21132,7827 21156,7731C21191,7589 21273,7486 21397,7428C21488,7385 21609,7379 21765,7409C21940,7442 22071,7432 22139,7379C22232,7305 22234,7210 22144,7130C22090,7083 22034,7060 21970,7060C21909,7060 21898,7055 21881,7022C21861,6985 21882,6970 21953,6970C22138,6970 22310,7110 22310,7261C22310,7305 22271,7387 22234,7422C22196,7457 22108,7496 22035,7509C21949,7525 21867,7522 21735,7500C21535,7466 21450,7477 21367,7550C21193,7704 21175,7940 21301,8405C21328,8504 21368,8633 21391,8691L21432,8797L21468,8784C21489,8777 21519,8771 21535,8770C21577,8769 21582,8764 21623,8678C21643,8636 21673,8591 21690,8577C21706,8563 21730,8537 21742,8518C21771,8476 21873,8350 21926,8291C21949,8265 21972,8230 21978,8212C21994,8165 22054,8078 22088,8053C22105,8041 22144,7994 22175,7950C22249,7844 22263,7836 22343,7844C22571,7869 22783,7983 22986,8189C23070,8274 23165,8418 23176,8476C23179,8495 23179,8522 23176,8536C23168,8566 23083,8653 23039,8675C23023,8684 23003,8705 22994,8723C22960,8789 22900,8859 22872,8867C22831,8879 22703,9027 22742,9018C22788,9008 22860,9078 22860,9134C22860,9198 22779,9312 22653,9422C22555,9509 22517,9530 22335,9595C22160,9657 22043,9703 21992,9729C21955,9748 21804,9867 21640,10005C21593,10045 21515,10103 21465,10135C21416,10166 21355,10209 21331,10228C21278,10271 21200,10322 21110,10373C21003,10433 20990,10449 20990,10525L20990,10590L21098,10586C21157,10584 21240,10575 21283,10566C21375,10547 21433,10546 21461,10561C21478,10570 21479,10574 21468,10587C21457,10601 21457,10602 21475,10592C21502,10578 21581,10560 21620,10560C21654,10560 21669,10582 21651,10604C21642,10615 21647,10615 21682,10604C21790,10572 21879,10557 21894,10569C21905,10578 21918,10579 21947,10571C21968,10565 22000,10560 22018,10560C22056,10560 22089,10544 22143,10502C22164,10485 22222,10450 22273,10424C22324,10398 22397,10356 22435,10330C22548,10255 22646,10211 22755,10189C22843,10170 22864,10169 22925,10179C23008,10193 23034,10208 23051,10253L23063,10287L23131,10282C23243,10274 23377,10304 23490,10362C23681,10459 23806,10600 23906,10834C23947,10930 23962,11106 23939,11207C23921,11287 23887,11393 23868,11432C23805,11561 23545,11801 23391,11872C23211,11955 22978,11962 22773,11890C22605,11831 22429,11661 22344,11477C22327,11439 22314,11423 22305,11426C22280,11436 22165,11399 22113,11365C22084,11346 22055,11330 22048,11330C22041,11330 21979,11346 21911,11365C21774,11404 21650,11418 21425,11422L21285,11425L21208,11472C21115,11529 21035,11558 20941,11566C20867,11573 20850,11588 20893,11607C20937,11628 21072,11743 21089,11773C21111,11816 21208,11918 21382,12081C21552,12239 21558,12242 21745,12260C21914,12276 21982,12295 22080,12350C22181,12407 22208,12416 22320,12430C22367,12436 22439,12450 22480,12462C22521,12473 22593,12491 22640,12500C22714,12516 22729,12523 22759,12555C22791,12590 22792,12595 22786,12645L22780,12698L22848,12702C22922,12706 22952,12722 22991,12779L23015,12814L23017,13308C23019,13601 23024,13807 23029,13814C23038,13825 23047,14107 23039,14114C22995,14148 22984,14150 22835,14150C22699,14150 22371,14141 21812,14122C21701,14118 21610,14117 21610,14120C21610,14123 21692,14155 21793,14191C21893,14228 22025,14277 22085,14300C22146,14323 22238,14357 22290,14377C22384,14411 22750,14557 22905,14622C22964,14647 22986,14661 22988,14676C22990,14687 22974,14745 22953,14805C22917,14907 22913,14914 22875,14934C22809,14968 22774,14961 22535,14866C22241,14749 22171,14722 22000,14655C21920,14625 21824,14586 21785,14570C21747,14553 21684,14530 21645,14517C21607,14504 21514,14467 21440,14435C21366,14403 21276,14367 21240,14355C21053,14288 20956,14250 20949,14238C20944,14231 20940,14191 20940,14149C20940,14091 20944,14069 20956,14059C20969,14048 20970,14030 20964,13938C20957,13822 20966,13789 21010,13775C21030,13769 21030,13761 21031,13382C21032,13021 21039,12802 21053,12755C21058,12739 21039,12720 20943,12648C20849,12579 20824,12565 20815,12576C20801,12595 20736,12620 20702,12620C20670,12620 20600,12578 20579,12546C20569,12531 20565,12493 20565,12415C20565,12283 20575,12292 20385,12260C20314,12248 20247,12236 20237,12234C20223,12229 20225,12240 20252,12292C20283,12352 20285,12360 20285,12465L20285,12576L20323,12566C20374,12552 20382,12566 20376,12650C20371,12728 20341,12812 20300,12866C20284,12887 20270,12908 20270,12911C20270,12914 20286,12917 20305,12918C20355,12920 20430,12965 20430,12994C20430,12999 20407,13025 20378,13052C20346,13081 20330,13103 20335,13109C20341,13113 20392,13137 20450,13161C20587,13218 20650,13274 20650,13339C20650,13451 20556,13535 20282,13667C20280,13667 20287,13685 20298,13707C20328,13767 20342,13843 20347,13995C20352,14123 20351,14137 20333,14158C20300,14200 20193,14188 20020,14124C19968,14104 19919,14084 19912,14078C19905,14072 19898,14069 19896,14071C19894,14073 19878,14129 19861,14195C19821,14347 19772,14478 19708,14602C19601,14811 19461,14872 19228,14811C19094,14776 19003,14774 18860,14804C18791,14818 18715,14832 18690,14834C18604,14841 18493,14790 18437,14717C18368,14626 18259,14385 18206,14204C18188,14141 18170,14087 18168,14085C18165,14082 18130,14092 18089,14106C17914,14166 17748,14195 17714,14172C17663,14138 17667,13943 17726,13680C17731,13657 17724,13652 17623,13603C17510,13549 17433,13492 17390,13433C17357,13386 17356,13318 17388,13273C17419,13229 17516,13168 17600,13139C17639,13126 17670,13112 17670,13108C17670,13104 17650,13078 17625,13050C17600,13022 17580,12995 17580,12990C17580,12985 17595,12971 17613,12958C17637,12940 17658,12935 17703,12935C17734,12935 17760,12933 17760,12932C17760,12930 17751,12915 17740,12900C17673,12807 17619,12630 17640,12574C17650,12548 17659,12546 17708,12559L17740,12569L17740,12487C17740,12398 17755,12336 17791,12276L17814,12237L17784,12243C17768,12246 17683,12256 17595,12266C17507,12275 17432,12288 17428,12294C17424,12300 17420,12355 17420,12415C17420,12507 17417,12530 17400,12557C17360,12623 17247,12638 17192,12583L17167,12558L17096,12632C17015,12716 16945,12765 16825,12821C16778,12843 16710,12881 16673,12906C16635,12931 16585,12961 16560,12972C16383,13050 16329,13093 16262,13207C16190,13330 16027,13510 15960,13542C15917,13562 15911,13569 15910,13597C15910,13619 15902,13634 15883,13648C15865,13661 15859,13672 15864,13685C15869,13700 15878,13702 15918,13696C15944,13692 16009,13687 16063,13683C16174,13676 16192,13685 16210,13748C16222,13795 16210,13814 16150,13845C16059,13891 16095,13901 16255,13875C16305,13867 16364,13860 16388,13860C16428,13860 16432,13862 16447,13898C16456,13918 16470,13977 16479,14028C16488,14081 16499,14120 16506,14120C16512,14120 16537,14103 16561,14081C16585,14060 16615,14040 16627,14036C16639,14032 16663,14011 16681,13989C16698,13967 16733,13939 16759,13926C16830,13890 17176,13780 17217,13780C17231,13780 17247,13827 17255,13895C17259,13923 17284,14064 17310,14210C17375,14559 17378,14585 17354,14598C17343,14603 17220,14608 17065,14609L16796,14610L16775,14584C16757,14562 16745,14557 16704,14555C16677,14555 16642,14548 16627,14542C16611,14535 16589,14530 16577,14530C16565,14530 16543,14524 16529,14516C16504,14503 16501,14504 16479,14533C16465,14552 16461,14565 16468,14568C16497,14577 16563,14635 16595,14677C16645,14747 16663,14807 16659,14898C16652,15040 16569,15160 16432,15227C16318,15283 16175,15249 16071,15141C16019,15085 16015,15086 15990,15150C15962,15220 15876,15296 15790,15327C15744,15344 15607,15342 15548,15323ZM15820,15239C16003,15095 15987,14850 15788,14751C15721,14717 15661,14711 15636,14735C15628,14743 15607,14750 15590,14750C15550,14750 15513,14769 15473,14812C15357,14933 15380,15143 15519,15236C15562,15264 15619,15277 15707,15279C15764,15280 15771,15277 15820,15239ZM16420,15145C16480,15115 16544,15043 16564,14983C16586,14920 16584,14825 16561,14775C16541,14731 16471,14661 16419,14635C16393,14621 16370,14619 16311,14623C16167,14633 16112,14663 16062,14760C16031,14820 16028,14831 16032,14895C16038,14982 16071,15052 16134,15107C16219,15182 16320,15195 16420,15145ZM22588,14741C22625,14719 22674,14694 22698,14685C22721,14675 22740,14664 22740,14659C22740,14645 22584,14570 22574,14579C22569,14584 22516,14613 22457,14643L22348,14698L22432,14738C22477,14760 22516,14779 22518,14779C22520,14780 22552,14762 22588,14741ZM18830,14718C18961,14689 19093,14689 19235,14719C19366,14747 19428,14743 19499,14704C19527,14689 19560,14661 19574,14641C19616,14581 19718,14356 19739,14278C19750,14238 19768,14178 19780,14146C19791,14113 19800,14086 19800,14084C19800,14083 19777,14093 19749,14106C19703,14128 19515,14180 19480,14180C19446,14180 19495,14160 19643,14114C19753,14080 19805,14060 19812,14047C19817,14037 19819,14026 19816,14023C19813,14020 19760,14031 19698,14048C19382,14135 19114,14158 18820,14125C18623,14102 18510,14083 18376,14050C18310,14033 18255,14021 18254,14023C18250,14026 18313,14229 18355,14350C18398,14473 18471,14619 18514,14669C18579,14742 18666,14756 18830,14718ZM15662,14655C15833,14630 16192,14564 16323,14533C16389,14517 16390,14516 16390,14483C16390,14443 16335,14111 16320,14060C16315,14041 16310,14013 16310,13998C16310,13972 16307,13970 16272,13970C16226,13970 15863,14041 15731,14075C15680,14089 15588,14109 15526,14120C15357,14150 15337,14157 15345,14183C15348,14195 15355,14237 15360,14275C15366,14314 15384,14420 15402,14513C15441,14710 15408,14692 15662,14655ZM22254,14564C22318,14533 22370,14505 22370,14502C22370,14498 22334,14481 22291,14464L22212,14434L22149,14471C22015,14550 22000,14560 22000,14569C22000,14578 22100,14617 22126,14619C22132,14620 22190,14595 22254,14564ZM16849,14460C16849,14435 16845,14397 16840,14375C16835,14353 16823,14286 16815,14227C16799,14121 16773,14039 16751,14026C16735,14016 16737,14071 16754,14111C16761,14130 16780,14224 16794,14320C16809,14416 16824,14506 16827,14520C16833,14542 16834,14543 16841,14525C16845,14514 16849,14485 16849,14460ZM21905,14464C21938,14444 21984,14417 22008,14404C22049,14382 22050,14381 22029,14369C21974,14340 21953,14340 21903,14373C21877,14390 21833,14416 21805,14430C21744,14463 21740,14483 21795,14491C21817,14494 21837,14498 21840,14499C21843,14499 21872,14484 21905,14464ZM16780,14480C16780,14475 16766,14461 16749,14447C16720,14425 16717,14416 16699,14294C16688,14223 16680,14146 16682,14123C16684,14099 16684,14080 16683,14080C16681,14080 16670,14090 16659,14101C16636,14124 16636,14124 16660,14284C16666,14322 16671,14381 16672,14414C16673,14448 16678,14478 16683,14482C16698,14491 16780,14490 16780,14480ZM17270,14436C17270,14423 17261,14370 17251,14319C17234,14238 17225,14184 17194,13993C17191,13974 17183,13960 17176,13960C17168,13960 17136,13975 17103,13993C17071,14011 17012,14041 16973,14060C16924,14083 16900,14100 16900,14111C16900,14121 16911,14175 16925,14231C16938,14287 16947,14337 16944,14341C16936,14355 16996,14379 17116,14409C17180,14426 17237,14443 17243,14449C17260,14466 17270,14462 17270,14436ZM21632,14356C21667,14338 21717,14314 21744,14304L21792,14286L21710,14248C21664,14227 21620,14210 21612,14210C21588,14210 21400,14313 21400,14327C21400,14342 21409,14348 21473,14371C21545,14396 21560,14395 21632,14356ZM21181,14205C21210,14189 21368,14001 21396,13948C21421,13900 21394,13917 21333,13987C21172,14171 21128,14206 21069,14198C21041,14194 21033,14199 21047,14213C21059,14226 21151,14220 21181,14205ZM17910,14055C18009,14031 18151,13978 18158,13962C18163,13948 18137,13827 18119,13782C18114,13769 18105,13762 18100,13765C18094,13769 18084,13767 18077,13762C18070,13756 18016,13737 17955,13720C17895,13702 17839,13685 17833,13682C17813,13675 17817,13745 17837,13761C17848,13771 17851,13771 17846,13763C17842,13755 17844,13750 17854,13750C17874,13750 17881,13763 17870,13779C17865,13787 17851,13791 17832,13788C17806,13784 17801,13787 17797,13807C17792,13831 17813,13850 17844,13850C17879,13850 17859,13878 17820,13885C17784,13891 17780,13895 17780,13921C17780,13949 17781,13950 17830,13950C17858,13950 17880,13954 17880,13958C17880,13962 17858,13976 17830,13987C17785,14006 17780,14012 17780,14039C17780,14067 17783,14070 17813,14070C17830,14070 17874,14063 17910,14055ZM20263,14056C20266,14048 20266,14032 20263,14021C20258,14001 20249,13996 20222,13999C20203,14002 20150,13968 20150,13953C20150,13938 20203,13936 20230,13950C20244,13958 20249,13955 20253,13939C20262,13905 20250,13890 20215,13890C20172,13890 20150,13881 20150,13864C20150,13855 20161,13850 20183,13850C20230,13850 20243,13839 20231,13808C20222,13785 20218,13783 20171,13788C20107,13794 20104,13777 20166,13760C20208,13748 20211,13745 20205,13721C20201,13707 20198,13694 20197,13694C20189,13687 19935,13779 19929,13790C19918,13813 19901,13964 19908,13972C19912,13976 19948,13993 19988,14010C20109,14061 20252,14085 20263,14056ZM22368,14055C22366,14047 22327,13990 22280,13930L22195,13821L22103,13820C22052,13820 22010,13823 22010,13826C22010,13840 22039,13883 22107,13967L22182,14059L22268,14063C22316,14064 22359,14067 22363,14068C22368,14069 22370,14063 22368,14055ZM22773,14058C22767,14051 22728,13998 22685,13942C22642,13885 22602,13836 22595,13834C22589,13831 22541,13831 22489,13832L22395,13835L22441,13885C22466,13913 22508,13962 22534,13995C22579,14051 22585,14055 22634,14061C22734,14072 22783,14071 22773,14058ZM21966,14043C21962,14033 21924,13979 21882,13923L21805,13821L21713,13820C21656,13820 21620,13824 21620,13830C21620,13838 21739,13999 21772,14035C21780,14043 21832,14050 21949,14058C21967,14060 21971,14056 21966,14043ZM21570,13990C21541,13957 21515,13930 21511,13930C21507,13930 21494,13921 21483,13911C21462,13892 21462,13892 21445,13930C21431,13962 21430,13974 21439,14003C21446,14023 21456,14041 21463,14044C21470,14046 21508,14049 21548,14049L21622,14050L21570,13990ZM15755,13870C15999,13821 16118,13790 16124,13774C16132,13753 16084,13756 15972,13785C15919,13798 15805,13823 15720,13840C15542,13875 15500,13887 15500,13902C15500,13916 15574,13907 15755,13870ZM21196,13880C21273,13881 21329,13886 21355,13895C21408,13914 21410,13914 21410,13885C21410,13846 21376,13839 21196,13842C21050,13845 21035,13847 21032,13863C21030,13873 21031,13888 21034,13897C21040,13911 21042,13911 21058,13896C21073,13883 21099,13880 21196,13880ZM19500,13772C19847,13722 20192,13624 20394,13517C20480,13472 20560,13393 20560,13353C20560,13336 20553,13317 20545,13310C20532,13300 20530,13301 20530,13319C20530,13332 20510,13361 20482,13389C20443,13428 20411,13446 20290,13497C20117,13569 19960,13612 19750,13646C19130,13744 18677,13731 18090,13599C17759,13524 17514,13410 17485,13319C17473,13282 17450,13306 17450,13355C17450,13390 17554,13479 17652,13528C17755,13579 18006,13657 18255,13715C18457,13761 18464,13763 18610,13779C18761,13797 18790,13798 19080,13795C19293,13793 19388,13788 19500,13772ZM22940,13306L22940,12842L22914,12811C22900,12794 22884,12780 22879,12780C22865,12780 22868,12802 22886,12821C22899,12835 22902,12901 22906,13295C22909,13547 22913,13757 22916,13762C22937,13795 22940,13731 22940,13306ZM19390,13615C19855,13550 19957,13527 20085,13455C20185,13399 20203,13358 20110,13397C20055,13420 20050,13415 20072,13363C20088,13325 20216,13125 20258,13073C20276,13049 20286,13030 20280,13030C20267,13030 20165,13083 20133,13106C20111,13122 20110,13121 20110,13103C20110,13092 20133,13057 20162,13024C20209,12970 20212,12965 20192,12962C20180,12960 20170,12956 20170,12953C20170,12950 20190,12911 20214,12867C20259,12785 20295,12680 20287,12657C20285,12650 20256,12672 20218,12708C20183,12742 20146,12770 20136,12770C20122,12770 20123,12764 20144,12723C20183,12644 20200,12573 20200,12480C20200,12398 20178,12290 20162,12290C20158,12290 20146,12303 20137,12320C20114,12359 20070,12410 20060,12410C20056,12410 20059,12382 20066,12348C20073,12313 20079,12265 20079,12240C20080,12189 20058,12108 20043,12103C20038,12101 20021,12126 20006,12160C19973,12234 19954,12238 19945,12173C19929,12046 19880,11950 19809,11906C19778,11887 19770,11893 19770,11937C19770,11983 19745,12029 19719,12030C19716,12030 19710,11997 19707,11956C19701,11878 19671,11793 19639,11764C19621,11747 19620,11748 19620,11796L19619,11845L19586,11775C19568,11737 19532,11678 19506,11646C19481,11613 19460,11582 19460,11577C19460,11565 19505,11576 19555,11601C19620,11633 19718,11717 19740,11760C19757,11793 19766,11800 19789,11800C19829,11800 19929,11901 19966,11978C19981,12009 19995,12037 19996,12039C19998,12040 20009,12035 20022,12026C20057,12001 20093,12006 20125,12040C20152,12069 20154,12069 20173,12052C20215,12015 20271,11940 20265,11930C20261,11924 20241,11930 20212,11945C20121,11993 20120,11972 20208,11841C20271,11749 20329,11686 20372,11664C20387,11656 20400,11647 20400,11643C20400,11630 20312,11653 20278,11676C20238,11702 20231,11696 20254,11652C20291,11582 20389,11527 20512,11507L20595,11494L20534,11463C20475,11432 20397,11359 20417,11353C20422,11351 20465,11363 20511,11380C20790,11483 20870,11498 20992,11471C21148,11435 21310,11307 21376,11165C21410,11094 21409,11008 21375,10957C21333,10896 21287,10910 21315,10976C21336,11027 21334,11041 21295,11124C21264,11190 21237,11220 21222,11205C21219,11202 21227,11170 21240,11134C21261,11072 21262,11066 21247,11037C21239,11019 21211,10981 21185,10953C21133,10894 21105,10887 21048,10916L21017,10932L21038,10949C21110,11004 21104,11163 21028,11189C20998,11200 20998,11199 21004,11172C21023,11093 21022,11054 21000,11009C20969,10950 20944,10930 20899,10930C20853,10930 20809,10964 20778,11024C20760,11057 20756,11080 20758,11143C20760,11230 20753,11236 20709,11189C20683,11161 20680,11151 20680,11094C20680,11060 20685,11020 20691,11006C20700,10986 20700,10977 20689,10964C20669,10940 20609,10903 20569,10892C20550,10887 20518,10875 20498,10866L20461,10850L20426,10892C20406,10915 20390,10937 20390,10942C20390,10946 20385,10950 20379,10950C20363,10950 20376,10902 20400,10868C20426,10833 20425,10830 20391,10830C20357,10830 20318,10871 20287,10940C20272,10973 20266,10980 20262,10966C20254,10932 20281,10856 20316,10813L20351,10771L20320,10781C20285,10794 20236,10851 20195,10928C20179,10956 20163,10980 20159,10980C20144,10980 20191,10837 20209,10825C20215,10822 20220,10814 20220,10807C20220,10785 20139,10875 20101,10940C20056,11016 20042,11073 20030,11233C20018,11383 20009,11416 19964,11468C19900,11543 19878,11509 19925,11408C19960,11334 19957,11326 19906,11360C19882,11377 19859,11390 19856,11390C19853,11390 19866,11361 19886,11325C19916,11268 19978,11064 19967,11054C19965,11052 19944,11067 19920,11087L19877,11124L19884,11096C19892,11063 19917,11027 20031,10881L20113,10777L20067,10809C19995,10858 20012,10828 20094,10760C20175,10693 20195,10666 20156,10676C20144,10679 20119,10682 20102,10684C20083,10685 20063,10696 20052,10711C20033,10734 19970,10777 19970,10766C19970,10763 19986,10742 20006,10720L20042,10680L19941,10680C19880,10680 19840,10684 19840,10690C19840,10696 19805,10700 19756,10700C19675,10700 19672,10701 19677,10721C19683,10742 19681,10742 19609,10735C19568,10730 19517,10728 19495,10730C19473,10731 19447,10733 19438,10733C19428,10734 19420,10738 19420,10742C19420,10751 19318,10783 19238,10800C19206,10806 19173,10818 19165,10826C19157,10835 19123,10852 19091,10865C19058,10879 18964,10923 18881,10964C18798,11005 18689,11055 18638,11076C18587,11096 18537,11121 18527,11131C18484,11177 18375,11198 18202,11196C18141,11196 18090,11197 18090,11199C18090,11202 18101,11216 18115,11230C18145,11261 18200,11366 18200,11392C18200,11408 18193,11405 18154,11375C18128,11356 18104,11340 18099,11340C18095,11340 18105,11369 18122,11405C18174,11518 18131,11538 18067,11430C18046,11394 18026,11366 18022,11367C18018,11368 18015,11327 18015,11277L18015,11186L17959,11165C17929,11153 17880,11127 17851,11108C17799,11073 17657,10939 17633,10903C17621,10886 17621,10886 17627,10905C17633,10922 17632,10923 17618,10912C17609,10905 17599,10884 17596,10865C17586,10813 17575,10815 17551,10871C17532,10918 17532,10924 17545,10951C17554,10967 17556,10980 17551,10980C17536,10980 17500,10930 17500,10909C17500,10880 17480,10876 17452,10899C17437,10911 17410,10927 17393,10935C17375,10944 17360,10951 17360,10953C17360,10954 17367,10977 17375,11005C17394,11065 17387,11127 17356,11173C17319,11228 17304,11220 17308,11148C17313,11063 17297,11016 17245,10964C17210,10929 17193,10920 17166,10920C17117,10920 17076,10962 17055,11035C17039,11090 17039,11097 17055,11148C17064,11177 17069,11204 17066,11208C17055,11218 17006,11175 16988,11139C16964,11093 16965,11023 16990,10982C17016,10940 17015,10936 16985,10922C16948,10905 16934,10907 16904,10933C16840,10988 16820,11086 16854,11178L16869,11221L16840,11200C16823,11188 16803,11166 16795,11150C16778,11117 16775,11014 16790,10976C16795,10962 16796,10950 16791,10950C16776,10950 16758,11005 16753,11066C16746,11147 16770,11192 16874,11296C16968,11389 17051,11435 17156,11452C17230,11465 17306,11452 17477,11399C17530,11383 17581,11370 17591,11370C17630,11370 17581,11417 17499,11460C17456,11482 17420,11503 17420,11506C17420,11509 17438,11509 17459,11505C17533,11493 17587,11509 17680,11571C17756,11622 17818,11685 17805,11698C17803,11701 17782,11693 17758,11682C17707,11657 17630,11643 17630,11658C17630,11663 17645,11674 17663,11681C17731,11709 17929,11942 17900,11960C17892,11965 17870,11962 17848,11953C17827,11944 17807,11940 17804,11942C17799,11947 17897,12073 17909,12078C17913,12079 17922,12069 17928,12055C17946,12016 17983,12003 18015,12024C18051,12048 18063,12041 18078,11987C18097,11924 18175,11830 18223,11814C18248,11805 18293,11768 18360,11700C18478,11581 18550,11542 18550,11598C18550,11607 18527,11644 18500,11679C18472,11714 18447,11755 18444,11769C18427,11845 18418,11870 18410,11870C18404,11870 18400,11852 18400,11829C18400,11802 18396,11791 18389,11796C18367,11809 18330,11905 18330,11950C18330,12009 18321,12040 18304,12040C18287,12040 18270,11979 18270,11916L18270,11866L18234,11901C18191,11943 18130,12061 18130,12104C18130,12160 18118,12210 18104,12210C18097,12210 18077,12187 18059,12160C18041,12132 18022,12111 18016,12113C17987,12123 17973,12253 17989,12352C17999,12414 17991,12426 17957,12400C17940,12387 17926,12361 17919,12334C17913,12310 17905,12290 17901,12290C17891,12290 17854,12353 17842,12390C17809,12492 17821,12595 17878,12710C17893,12740 17907,12768 17908,12772C17910,12777 17905,12780 17896,12780C17888,12780 17852,12753 17817,12720C17748,12656 17730,12648 17730,12681C17730,12705 17799,12856 17829,12899C17841,12915 17850,12936 17850,12945C17850,12960 17844,12962 17808,12956L17765,12949L17843,13023C17907,13085 17934,13120 17916,13120C17915,13120 17873,13100 17824,13075C17775,13050 17732,13030 17728,13030C17711,13030 17722,13052 17763,13098C17810,13150 17966,13398 17957,13406C17955,13409 17933,13404 17909,13396C17847,13374 17842,13376 17876,13411C17919,13458 18012,13496 18177,13535C18301,13564 18579,13606 18760,13623C18823,13629 19335,13622 19390,13615ZM22760,13590L22760,13540L21680,13540L21678,13480C21677,13447 21676,13413 21676,13405C21675,13391 21738,13389 22215,13387L22755,13385L22758,13363L22761,13340L22262,13340C21987,13340 21742,13337 21716,13334L21670,13327L21670,13180L22184,13180C22466,13180 22712,13177 22729,13174C22767,13166 22770,13144 22733,13136C22717,13133 22359,13131 21937,13132C21171,13134 21169,13134 21172,13155C21175,13174 21182,13175 21398,13178L21620,13180L21620,13340L21395,13340C21180,13340 21170,13341 21170,13359C21170,13387 21197,13390 21423,13392L21620,13394L21620,13543L21390,13537C21169,13531 21160,13532 21160,13550C21160,13560 21168,13574 21178,13579C21189,13586 21465,13589 21978,13590L22760,13590ZM15936,13464C15995,13436 16124,13286 16197,13162C16256,13060 16264,13039 16269,12979C16273,12942 16279,12908 16283,12903C16294,12893 16308,12918 16315,12962C16319,12983 16325,13000 16329,13000C16332,13000 16352,12987 16371,12971C16391,12954 16455,12919 16514,12891C16642,12831 16776,12751 16810,12715C16824,12700 16843,12684 16853,12678C16870,12670 16870,12671 16860,12690C16846,12717 16852,12725 16877,12712C16906,12696 17020,12603 17082,12544L17138,12490L17142,12102C17145,11888 17144,11706 17140,11696C17135,11681 17131,11683 17108,11707C17079,11738 17062,11774 17051,11835L17043,11875L17032,11847C17025,11831 17020,11805 17020,11788C17020,11761 17018,11759 17003,11771C16973,11797 16960,11845 16966,11908C16974,11984 16957,11998 16930,11938C16919,11914 16910,11887 16910,11878C16910,11852 16893,11856 16874,11885C16858,11910 16858,11928 16876,12018C16886,12069 16864,12056 16839,11995C16814,11935 16806,11929 16789,11961C16779,11981 16780,12001 16796,12064C16806,12104 16773,12097 16753,12055C16744,12036 16731,12020 16724,12020C16705,12020 16680,12084 16680,12134C16680,12159 16676,12180 16671,12180C16666,12180 16652,12164 16641,12144C16610,12092 16595,12105 16592,12188C16590,12228 16585,12260 16579,12260C16574,12260 16561,12247 16552,12230C16518,12171 16484,12203 16494,12285C16497,12315 16496,12341 16491,12345C16480,12351 16440,12312 16440,12295C16440,12289 16435,12279 16428,12272C16419,12263 16412,12264 16398,12277C16376,12297 16375,12327 16396,12380C16405,12403 16410,12423 16407,12426C16394,12439 16362,12417 16344,12385C16304,12309 16267,12368 16299,12459C16309,12490 16316,12518 16313,12522C16305,12536 16269,12509 16248,12474C16209,12408 16174,12445 16185,12540C16194,12620 16177,12628 16131,12563C16092,12506 16070,12523 16070,12609C16070,12635 16067,12659 16064,12663C16052,12675 16030,12657 16030,12636C16030,12604 16007,12577 15984,12582C15968,12585 15965,12593 15967,12634C15970,12674 15967,12681 15953,12678C15944,12676 15932,12660 15928,12642C15918,12606 15909,12603 15886,12626C15875,12637 15870,12661 15870,12708L15869,12775L15850,12751C15839,12738 15830,12719 15830,12709C15830,12675 15795,12687 15781,12725C15770,12757 15771,12766 15790,12806C15811,12849 15813,12881 15796,12935C15793,12946 15794,12961 15799,12969C15806,12980 15821,12971 15872,12927C15907,12895 15948,12868 15965,12864C16007,12857 16100,12863 16101,12874C16101,12879 16073,12894 16038,12908C15955,12941 15896,12984 15854,13042C15804,13112 15808,13141 15874,13212C15925,13266 15948,13305 15936,13317C15923,13330 15873,13305 15836,13266C15782,13209 15743,13183 15698,13175C15660,13168 15590,13184 15578,13204C15574,13210 15590,13235 15614,13260C15638,13285 15671,13325 15688,13350C15767,13467 15849,13505 15936,13464ZM15645,13450C15654,13436 15616,13385 15547,13318C15514,13286 15486,13260 15485,13260C15476,13260 15459,13332 15465,13349C15474,13379 15454,13383 15435,13354L15418,13328L15396,13361C15357,13420 15357,13429 15393,13445C15431,13462 15635,13466 15645,13450ZM15416,13234C15535,13119 15563,13105 15666,13106L15748,13106L15753,13074C15756,13056 15755,13028 15751,13013C15745,12989 15738,12985 15702,12982C15645,12978 15576,13009 15555,13050C15537,13084 15514,13085 15517,13051C15521,13023 15495,13024 15476,13053C15468,13065 15458,13087 15455,13103C15445,13142 15420,13138 15420,13098L15419,13065L15401,13088C15390,13100 15379,13128 15375,13151C15368,13192 15348,13200 15342,13164C15335,13128 15322,13128 15296,13166C15262,13216 15262,13263 15295,13295C15308,13309 15321,13320 15323,13320C15325,13320 15367,13281 15416,13234ZM15353,13036C15442,12969 15529,12937 15718,12904C15748,12898 15755,12878 15738,12844C15722,12809 15654,12786 15591,12794C15537,12801 15512,12822 15504,12866C15495,12912 15470,12911 15470,12865C15470,12846 15466,12830 15462,12830C15444,12830 15417,12871 15411,12907C15404,12950 15383,12961 15374,12926C15366,12894 15348,12901 15327,12946C15311,12979 15303,13060 15316,13060C15319,13060 15336,13049 15353,13036ZM21728,13004C21740,13001 21750,12994 21750,12989C21750,12967 21691,12963 21443,12968C21204,12972 21180,12974 21180,12990C21180,12999 21183,13010 21188,13015C21196,13024 21693,13014 21728,13004ZM22743,13003C22747,13001 22750,12992 22750,12983C22750,12969 22725,12968 22513,12975C22382,12979 22224,12983 22161,12984C22073,12985 22046,12988 22042,12999C22038,13011 22054,13012 22136,13007C22191,13004 22291,13005 22360,13010C22478,13017 22726,13013 22743,13003ZM21949,12983C21956,12969 21951,12955 21925,12920C21887,12868 21855,12806 21811,12699C21794,12657 21768,12612 21754,12599C21720,12568 21697,12523 21710,12515C21734,12500 21810,12549 21857,12611C21948,12729 22100,12879 22158,12907C22211,12933 22264,12940 22282,12922C22288,12916 22247,12867 22176,12796C22028,12645 21970,12569 21970,12524C21970,12505 21975,12490 21980,12490C21986,12490 22032,12532 22083,12584C22251,12755 22394,12817 22488,12760C22554,12720 22542,12695 22440,12660C22352,12629 22228,12568 22182,12532C22162,12516 22120,12487 22090,12468C22060,12449 22026,12423 22015,12410C21987,12379 21958,12370 21860,12360C21634,12337 21563,12327 21536,12314C21510,12302 21505,12303 21476,12325C21458,12339 21440,12350 21437,12350C21433,12350 21430,12326 21430,12297C21430,12268 21424,12236 21417,12226C21404,12209 21403,12210 21391,12238C21377,12272 21343,12307 21334,12297C21330,12294 21333,12271 21339,12246C21353,12188 21353,12168 21336,12145C21324,12128 21321,12130 21299,12174C21286,12201 21271,12221 21266,12219C21260,12217 21256,12184 21256,12146C21255,12068 21239,12049 21220,12104C21214,12123 21203,12144 21195,12150C21183,12160 21181,12150 21187,12081C21191,12023 21190,12000 21181,12000C21175,12000 21170,12005 21170,12011C21170,12033 21137,12090 21125,12090C21114,12090 21114,12082 21121,12058C21133,12014 21132,11967 21119,11933L21108,11905L21091,11952C21082,11978 21069,12005 21062,12012C21051,12023 21049,12015 21055,11968C21061,11918 21059,11904 21034,11853L21006,11795L21001,11857C20993,11936 20980,11950 20980,11878C20980,11847 20977,11808 20974,11791C20967,11757 20947,11754 20942,11786C20933,11831 20920,11821 20920,11769C20920,11723 20916,11709 20896,11691L20871,11668L20866,11701C20863,11720 20858,11904 20855,12111C20850,12461 20851,12488 20867,12502C20914,12543 21055,12631 21058,12622C21060,12616 21089,12631 21122,12656C21206,12717 21269,12734 21393,12727C21448,12724 21497,12717 21502,12712C21508,12706 21493,12690 21461,12667C21403,12625 21381,12593 21404,12584C21413,12581 21434,12587 21452,12598C21470,12609 21499,12621 21515,12624C21576,12638 21616,12676 21666,12766C21745,12908 21841,12998 21912,13000C21928,13000 21943,12993 21949,12983ZM15402,12791C15461,12752 15540,12730 15625,12730C15697,12730 15720,12720 15720,12690C15720,12669 15643,12630 15602,12630C15558,12630 15534,12644 15515,12681C15498,12712 15480,12712 15480,12680C15480,12655 15453,12663 15405,12703C15367,12734 15334,12793 15345,12810C15353,12824 15354,12824 15402,12791ZM22675,12665C22689,12652 22700,12632 22700,12621C22700,12598 22691,12595 22500,12555C22431,12541 22367,12527 22356,12524C22345,12520 22340,12522 22343,12528C22347,12533 22397,12554 22455,12575C22532,12602 22567,12620 22585,12642C22599,12658 22610,12676 22610,12681C22610,12699 22651,12689 22675,12665ZM17314,12514C17327,12502 17330,12475 17330,12384L17330,12270L17280,12273L17230,12275L17230,12376C17230,12463 17233,12481 17251,12504C17274,12534 17292,12537 17314,12514ZM20738,12518C20743,12511 20750,12454 20752,12393L20756,12280L20661,12280L20654,12325C20646,12382 20657,12478 20676,12508C20692,12532 20722,12537 20738,12518ZM23183,11856C23327,11828 23440,11763 23549,11643C23618,11569 23669,11473 23695,11370C23718,11281 23711,11102 23681,11009C23640,10879 23535,10749 23397,10656C23259,10562 23143,10527 22980,10527C22835,10527 22746,10556 22623,10645C22408,10798 22340,10952 22367,11225C22381,11364 22413,11461 22476,11553C22606,11742 22829,11862 23067,11869C23090,11869 23142,11864 23183,11856ZM15395,11815C15477,11798 15629,11727 15714,11666C15804,11602 15931,11464 15984,11374C16154,11085 16130,10684 15927,10415C15800,10246 15638,10140 15415,10080C15344,10061 15317,10059 15185,10063C15042,10068 15030,10070 14925,10107C14729,10176 14562,10308 14475,10462C14450,10506 14430,10546 14430,10550C14430,10554 14421,10579 14411,10606C14357,10741 14340,10821 14340,10934C14340,11099 14375,11223 14479,11424C14560,11580 14714,11702 14937,11786C15076,11838 15232,11848 15395,11815ZM16749,11344L16780,11338L16750,11303C16733,11285 16708,11246 16693,11217C16669,11172 16665,11154 16666,11085C16666,11030 16672,10993 16684,10968C16705,10924 16780,10853 16819,10839C16846,10829 16846,10829 16844,10747C16842,10667 16841,10665 16813,10653C16774,10636 16754,10636 16769,10654C16783,10671 16796,10760 16783,10760C16778,10760 16763,10741 16750,10718C16695,10625 16642,10595 16669,10672C16675,10689 16680,10717 16680,10734L16679,10765L16654,10735C16613,10686 16557,10630 16553,10634C16551,10635 16557,10653 16565,10673C16597,10749 16572,10793 16536,10726C16514,10684 16453,10624 16464,10654C16478,10692 16483,10790 16472,10790C16466,10790 16443,10764 16421,10732C16400,10700 16375,10668 16366,10661C16349,10647 16349,10652 16370,10753C16383,10813 16360,10798 16310,10713C16262,10632 16232,10605 16244,10655C16260,10718 16267,10770 16260,10770C16255,10770 16234,10741 16211,10706C16143,10597 16132,10602 16161,10731C16197,10894 16186,11123 16135,11253C16129,11268 16133,11270 16181,11267C16211,11265 16251,11267 16270,11271C16289,11276 16342,11284 16387,11290C16480,11302 16502,11308 16494,11321C16491,11326 16504,11329 16522,11329C16607,11326 16675,11332 16655,11340C16639,11347 16644,11349 16676,11349C16699,11350 16732,11347 16749,11344ZM21535,11335C21671,11327 21721,11320 21715,11310C21709,11301 21733,11296 21825,11285C21853,11282 21904,11271 21940,11260C22030,11232 22064,11234 22117,11270C22181,11313 22230,11337 22272,11345L22308,11352L22301,11318C22296,11300 22287,11266 22281,11243C22275,11220 22271,11158 22272,11104L22275,11006L22232,10976C22191,10947 22148,10940 22075,10952C22063,10954 22054,10948 22052,10938C22049,10924 22055,10920 22074,10920C22090,10920 22106,10911 22116,10895C22130,10874 22140,10870 22181,10870C22209,10870 22247,10877 22267,10885C22309,10903 22313,10900 22330,10845C22348,10791 22415,10680 22468,10617C22553,10518 22702,10425 22846,10380C22957,10346 22970,10339 22970,10319C22970,10246 22761,10259 22595,10342C22562,10359 22510,10389 22480,10410C22450,10430 22371,10474 22305,10508C22230,10546 22153,10596 22100,10639C22053,10677 22012,10707 22009,10705C22006,10703 21996,10710 21987,10721C21956,10757 21948,10740 21974,10694C22005,10638 22005,10640 21979,10640C21959,10640 21900,10694 21857,10751C21839,10775 21839,10775 21844,10713C21846,10678 21845,10650 21841,10650C21828,10650 21793,10694 21771,10737C21751,10777 21733,10797 21725,10788C21723,10786 21727,10757 21735,10725C21742,10692 21747,10664 21745,10662C21735,10652 21676,10696 21654,10730C21639,10752 21623,10767 21618,10764C21608,10758 21613,10699 21626,10666C21638,10634 21605,10651 21553,10702C21514,10741 21497,10751 21489,10743C21480,10734 21483,10722 21500,10696C21512,10676 21527,10660 21533,10659C21542,10659 21542,10657 21533,10654C21516,10647 21457,10676 21429,10706C21401,10736 21390,10736 21390,10707C21390,10685 21414,10642 21434,10628C21453,10614 21433,10620 21388,10639C21364,10649 21332,10674 21317,10694C21302,10714 21283,10730 21275,10730C21262,10730 21263,10722 21279,10680C21301,10623 21295,10619 21237,10649C21217,10659 21197,10664 21194,10659C21191,10654 21183,10650 21175,10650C21165,10650 21163,10664 21167,10713C21174,10793 21182,10806 21225,10814C21284,10825 21381,10859 21415,10880C21432,10891 21459,10922 21474,10949C21530,11053 21505,11177 21403,11297L21355,11353L21395,11347C21417,11343 21480,11337 21535,11335ZM18289,11099C18400,11081 18559,11024 18735,10937C18829,10891 18942,10840 18988,10825C19100,10785 19097,10777 18968,10777C18891,10777 18912,10751 19006,10729C19046,10720 19207,10696 19283,10688C19293,10687 19300,10677 19301,10665C19301,10654 19304,10651 19307,10658C19310,10667 19316,10668 19324,10661C19346,10643 19494,10625 19626,10625C19714,10625 19714,10612 19624,10574C19561,10546 19544,10530 19578,10530C19601,10530 19776,10577 19801,10590C19836,10609 19821,10583 19773,10541C19710,10488 19734,10487 19851,10539C19926,10573 19952,10579 20027,10583C20150,10589 20304,10573 20362,10548C20416,10525 20480,10460 20480,10429C20480,10410 20476,10409 20448,10414C20370,10429 20263,10432 20255,10420C20244,10403 20276,10380 20310,10380C20324,10380 20367,10365 20406,10346C20473,10314 20500,10288 20480,10275C20475,10272 20464,10246 20455,10217C20439,10169 20378,10090 20357,10090C20353,10090 20328,10104 20303,10121C20264,10148 20179,10180 20144,10180C20137,10180 20130,10174 20127,10166C20123,10157 20143,10139 20187,10114C20251,10076 20285,10035 20275,10008C20272,10000 20244,9979 20213,9961C20160,9931 20151,9929 20068,9931C19974,9933 19898,9946 19790,9980C19707,10006 19687,10006 19719,9980C19732,9969 19748,9960 19756,9960C19764,9960 19770,9956 19770,9951C19770,9940 19708,9955 19669,9976C19631,9995 19557,10020 19551,10015C19549,10012 19560,10000 19576,9988C19644,9934 19656,9921 19637,9920C19617,9920 19550,9952 19508,9982C19493,9992 19455,10009 19423,10020L19365,10039L19405,10007C19426,9989 19456,9965 19470,9953L19495,9931L19465,9939C19449,9944 19383,9968 19318,9994C19254,10019 19194,10040 19184,10040C19168,10040 19168,10038 19186,10019C19196,10007 19223,9984 19245,9967C19295,9930 19271,9936 19150,9990C19103,10011 19055,10031 19043,10034C19030,10037 19010,10043 18999,10046C18966,10056 18984,10035 19045,9994C19075,9974 19100,9956 19100,9953C19100,9943 19043,9961 18918,10012C18848,10041 18787,10061 18784,10057C18774,10047 18808,10011 18859,9978C18909,9947 18900,9943 18820,9964C18738,9986 18636,10045 18564,10112C18528,10146 18497,10171 18495,10168C18482,10155 18529,10079 18588,10018C18649,9955 18651,9950 18624,9955C18456,9986 18440,9990 18389,10023C18359,10042 18324,10063 18310,10070L18286,10083L18303,10057C18312,10042 18320,10028 18320,10025C18320,10015 18245,10051 18223,10072C18194,10099 18192,10079 18219,10041C18241,10011 18313,9957 18337,9954C18345,9952 18378,9936 18410,9916C18441,9897 18479,9876 18493,9871C18508,9865 18520,9855 18520,9848C18520,9838 18522,9838 18528,9847C18535,9859 18675,9868 18686,9858C18692,9852 18684,9849 18613,9830C18573,9820 18560,9807 18578,9797C18582,9795 18578,9795 18570,9797C18562,9800 18542,9804 18525,9807C18509,9811 18466,9837 18431,9867C18395,9896 18362,9920 18358,9920C18321,9920 18488,9767 18533,9760L18565,9754L18523,9732C18500,9720 18477,9710 18472,9710C18467,9710 18448,9723 18429,9740C18360,9799 18295,9850 18287,9850C18260,9850 18361,9751 18418,9721C18447,9706 18446,9698 18410,9671L18379,9649L18330,9685C18303,9705 18268,9737 18251,9758C18233,9780 18221,9789 18220,9780C18220,9762 18257,9715 18318,9655L18360,9614L18336,9591L18311,9568L18280,9591C18263,9604 18220,9644 18183,9680C18145,9717 18122,9734 18130,9720C18148,9685 18235,9568 18259,9546C18271,9535 18280,9521 18280,9513C18280,9484 18194,9546 18098,9645C18044,9700 18000,9742 18000,9738C18000,9725 18073,9594 18101,9559C18125,9528 18126,9523 18110,9527C18073,9537 17997,9623 17913,9753C17865,9825 17825,9879 17822,9872C17818,9860 17832,9784 17846,9745C17849,9734 17836,9748 17816,9775C17746,9869 17714,9968 17704,10115C17691,10313 17685,10364 17674,10367C17662,10371 17647,10340 17632,10280C17612,10206 17606,10285 17618,10456C17636,10701 17670,10812 17760,10913C17831,10992 17965,11080 18047,11099C18100,11112 18213,11112 18289,11099ZM17355,10848C17380,10836 17400,10823 17400,10820C17400,10811 17300,10726 17273,10712C17259,10704 17196,10700 17101,10700L16950,10700L16950,10743C16950,10796 16954,10800 17016,10829C17057,10847 17071,10850 17088,10841C17111,10829 17226,10841 17257,10859C17284,10875 17305,10872 17355,10848ZM20806,10855C20834,10847 20894,10840 20946,10840C21034,10840 21037,10839 21049,10814C21055,10799 21063,10768 21067,10745C21072,10707 21070,10702 21049,10697C21036,10693 20961,10690 20883,10690L20741,10690L20680,10744C20646,10774 20618,10802 20617,10807C20614,10818 20711,10869 20736,10870C20747,10870 20779,10863 20806,10855ZM17493,10728C17511,10715 17527,10704 17528,10703C17530,10702 17524,10630 17515,10543C17498,10381 17500,10299 17525,10228C17536,10194 17536,10190 17521,10190C17501,10190 17413,10139 17383,10111L17360,10089L17360,10321C17360,10531 17362,10556 17379,10584C17390,10601 17403,10635 17410,10659C17421,10700 17446,10750 17457,10750C17459,10750 17475,10740 17493,10728ZM17254,10548C17257,10519 17261,10312 17264,10088L17269,9680L17140,9680L17140,10555L17191,10551C17242,10548 17243,10548 17238,10574C17235,10588 17236,10600 17241,10600C17245,10600 17251,10576 17254,10548ZM20898,10098C20896,9869 20892,9678 20888,9675C20885,9672 20856,9672 20824,9675L20765,9682L20768,10104C20770,10335 20773,10531 20775,10538C20779,10548 20784,10548 20798,10539C20825,10522 20871,10536 20878,10563C20895,10629 20902,10479 20898,10098ZM20664,10458C20667,10429 20673,10320 20676,10215L20682,10025L20641,10089C20618,10124 20590,10154 20580,10157C20564,10161 20562,10166 20571,10182C20589,10216 20597,10307 20589,10393C20582,10470 20583,10476 20603,10492C20642,10523 20657,10515 20664,10458ZM21064,10306C21097,10282 21145,10253 21170,10240C21235,10207 21246,10197 21225,10190C21212,10185 21230,10172 21291,10140C21337,10116 21391,10080 21411,10060C21431,10039 21500,9987 21564,9945C21666,9876 21716,9835 21784,9761C21795,9750 21848,9715 21902,9684C21988,9635 22109,9584 22415,9467C22454,9452 22511,9420 22543,9396C22601,9353 22780,9166 22780,9150C22780,9137 22721,9128 22675,9133C22637,9138 22524,9194 22489,9226C22481,9234 22468,9240 22462,9240C22456,9240 22445,9249 22437,9261C22427,9274 22392,9290 22334,9306C22260,9326 22215,9331 22070,9336C21974,9338 21874,9345 21848,9351C21792,9364 21760,9397 21722,9478C21700,9526 21659,9563 21644,9548C21641,9545 21649,9514 21661,9479C21696,9380 21692,9260 21651,9090C21613,8932 21602,8897 21601,8923C21599,8956 21568,8937 21551,8893C21529,8836 21524,8833 21495,8860C21454,8899 21439,8962 21442,9090C21445,9218 21432,9367 21417,9377C21405,9385 21392,9364 21378,9312C21371,9289 21361,9271 21355,9273C21337,9279 21339,9336 21359,9398C21371,9432 21380,9465 21380,9472C21380,9493 21332,9428 21314,9383C21305,9359 21294,9340 21289,9340C21274,9340 21267,9413 21278,9459C21304,9566 21304,9558 21285,9535C21276,9524 21264,9496 21258,9472C21252,9448 21242,9431 21236,9433C21230,9435 21220,9479 21213,9531L21201,9625L21204,9522C21207,9423 21206,9419 21186,9422C21163,9425 21155,9453 21145,9564C21138,9632 21137,9634 21076,9699C20979,9802 20985,9778 20988,10083C20990,10230 20994,10350 20997,10350C21000,10350 21030,10330 21064,10306ZM17050,10082C17050,9837 17049,9822 17030,9805C17019,9795 16997,9764 16980,9736C16939,9665 16894,9615 16887,9632C16883,9639 16883,9622 16887,9593C16897,9501 16872,9404 16857,9478C16854,9493 16844,9514 16836,9525C16824,9540 16826,9529 16841,9482C16857,9435 16860,9413 16853,9397C16844,9376 16841,9378 16820,9420C16793,9475 16771,9500 16752,9500C16742,9500 16740,9494 16745,9483C16749,9473 16761,9435 16772,9397C16790,9334 16790,9326 16776,9277C16767,9249 16749,9212 16736,9195L16711,9165L16687,9194C16657,9231 16636,9222 16656,9181C16674,9145 16690,9060 16690,9000C16690,8966 16684,8945 16668,8925C16649,8901 16646,8899 16640,8915C16636,8927 16629,8914 16618,8874C16601,8813 16541,8730 16514,8730C16495,8730 16471,8770 16449,8835C16432,8887 16432,8893 16451,8996C16461,9055 16474,9119 16480,9138C16485,9158 16487,9229 16483,9299C16479,9396 16481,9443 16494,9504C16511,9586 16507,9609 16476,9597C16467,9593 16445,9558 16426,9518C16384,9425 16357,9408 16245,9402C16201,9400 16149,9402 16130,9407C16111,9412 16073,9414 16046,9411C16000,9405 15996,9403 15983,9365C15976,9343 15955,9311 15938,9293C15888,9242 15850,9228 15750,9228C15626,9228 15610,9241 15683,9284C15737,9316 15758,9340 15800,9415C15872,9547 15922,9587 16085,9646C16231,9698 16371,9772 16337,9778C16328,9780 16320,9785 16320,9790C16320,9801 16440,9896 16535,9960C16578,9989 16632,10030 16655,10050C16746,10131 17022,10338 17043,10339C17047,10340 17050,10224 17050,10082ZM17594,10028C17598,10010 17603,9983 17606,9969C17614,9933 17585,9873 17510,9767C17439,9669 17401,9635 17370,9645C17351,9651 17350,9660 17350,9800L17350,9948L17387,9980C17433,10021 17516,10060 17556,10060C17584,10060 17589,10056 17594,10028ZM20549,10019C20567,10008 20604,9976 20632,9947L20682,9895L20679,9785C20677,9725 20679,9670 20683,9664C20687,9657 20677,9647 20658,9639C20627,9626 20626,9627 20583,9674C20538,9724 20418,9900 20407,9933C20400,9953 20439,10000 20462,10000C20469,10000 20481,10009 20488,10020C20503,10045 20507,10045 20549,10019ZM19055,9869C19094,9868 19169,9863 19223,9858C19287,9851 19325,9851 19333,9858C19341,9864 19363,9863 19400,9853C19432,9845 19456,9843 19458,9849C19463,9865 19615,9839 19694,9808C19718,9798 19724,9799 19732,9814C19741,9830 19744,9830 19765,9816C19799,9794 19815,9796 19837,9825C19854,9849 19857,9849 19920,9840C19956,9835 20009,9833 20038,9835C20066,9838 20115,9842 20145,9845L20200,9850L20200,9805C20200,9758 20159,9650 20141,9650C20135,9650 20130,9672 20130,9701C20130,9752 20117,9790 20100,9790C20094,9790 20090,9777 20090,9761C20090,9723 20068,9662 20036,9611C20007,9566 19983,9555 19994,9593C20026,9699 19999,9726 19957,9630C19943,9597 19923,9567 19913,9563C19903,9559 19889,9548 19882,9538C19861,9510 19850,9517 19850,9558C19850,9579 19843,9605 19835,9616C19822,9633 19821,9630 19820,9577C19820,9536 19813,9503 19795,9465C19768,9409 19732,9366 19743,9405C19765,9481 19762,9550 19736,9550C19727,9550 19720,9532 19716,9501C19711,9464 19699,9438 19669,9400C19647,9372 19627,9350 19624,9352C19622,9354 19628,9379 19637,9407C19653,9457 19650,9490 19630,9490C19625,9490 19620,9479 19620,9467C19620,9433 19566,9329 19530,9295C19495,9261 19483,9267 19503,9307C19530,9358 19545,9455 19532,9484C19515,9521 19503,9516 19497,9468C19488,9400 19382,9205 19364,9223C19361,9226 19368,9247 19380,9271C19407,9324 19405,9417 19375,9450C19365,9461 19354,9470 19351,9470C19348,9470 19345,9433 19345,9388C19344,9328 19339,9294 19325,9265L19306,9225L19299,9291C19288,9390 19250,9455 19187,9479C19163,9488 19160,9487 19160,9469C19160,9458 19172,9418 19187,9382C19245,9240 19203,9137 19055,9063C19033,9051 18964,9026 18902,9006C18811,8977 18780,8971 18742,8976C18558,8999 18499,9042 18411,9215C18370,9297 18360,9325 18360,9366C18360,9452 18435,9576 18511,9616C18565,9643 18649,9660 18675,9648L18699,9637L18662,9582C18616,9514 18614,9460 18652,9385C18686,9318 18705,9304 18768,9297C18848,9288 18870,9296 18915,9353C18964,9415 19060,9560 19060,9571C19060,9578 18989,9603 18984,9597C18983,9596 18954,9542 18919,9478C18862,9369 18855,9360 18828,9360C18773,9360 18732,9385 18721,9427C18696,9517 18724,9610 18785,9639C18810,9651 18824,9651 18889,9636C18930,9628 18965,9622 18968,9624C18976,9633 18939,9696 18918,9710C18904,9718 18859,9726 18803,9728L18711,9732L18730,9770C18740,9790 18760,9821 18774,9837C18796,9863 18807,9868 18851,9869C18880,9869 18906,9872 18909,9875C18912,9878 18930,9879 18950,9876C18969,9873 19017,9870 19055,9869ZM21050,9546C21050,9522 21047,9488 21044,9471L21038,9440L20660,9440L20660,9463C20660,9475 20663,9509 20666,9538L20673,9590L21050,9590L21050,9546ZM17364,9558C17367,9545 17370,9514 17370,9488L17370,9440L16990,9440L16990,9503C16990,9538 16993,9570 16997,9573C17000,9577 17083,9580 17181,9580C17356,9580 17358,9580 17364,9558ZM17378,9354C17420,9342 17395,9260 17336,9215C17269,9164 17215,9183 17085,9304L17025,9359L17190,9359C17281,9360 17365,9357 17378,9354ZM20990,9352C20990,9340 20890,9245 20846,9216C20789,9178 20732,9180 20685,9222C20654,9249 20610,9316 20610,9336C20610,9339 20617,9339 20626,9336C20634,9333 20648,9337 20656,9345C20668,9357 20703,9360 20831,9360C20918,9360 20990,9356 20990,9352ZM16400,9303C16400,9208 16388,9120 16374,9120C16367,9120 16338,9141 16308,9166C16279,9191 16233,9223 16205,9237C16148,9266 16090,9307 16090,9319C16090,9324 16141,9325 16203,9323C16290,9319 16323,9321 16350,9334C16399,9356 16400,9355 16400,9303ZM17708,9183C17805,9119 17932,9032 17990,8990C18048,8948 18196,8842 18320,8755C18444,8668 18579,8573 18620,8544C18661,8514 18746,8457 18808,8415C18869,8374 18920,8336 18920,8331C18920,8316 18761,8210 18755,8221C18746,8235 18542,8384 18390,8489C18316,8540 18183,8633 18095,8695C17861,8863 17839,8878 17649,9000C17553,9062 17463,9124 17447,9138C17423,9161 17421,9166 17435,9179C17448,9192 17454,9192 17470,9182C17495,9167 17508,9166 17492,9182C17475,9199 17477,9235 17495,9250C17507,9260 17516,9257 17545,9231C17597,9186 17607,9193 17560,9242C17524,9280 17512,9300 17525,9300C17528,9300 17610,9247 17708,9183ZM20519,9263C20530,9242 20554,9210 20573,9191L20608,9158L20577,9131C20522,9085 20440,9026 20255,8901C20156,8833 20013,8735 19937,8682C19716,8527 19695,8512 19495,8376C19391,8305 19271,8221 19230,8190C19189,8159 19034,8051 18885,7950C18591,7750 18445,7649 18185,7465C18091,7399 17961,7309 17897,7265C17832,7221 17731,7151 17672,7110C17473,6969 17466,6966 17376,6968C17291,6971 17257,6982 17262,7008C17264,7017 17301,7049 17346,7080C17390,7110 17459,7160 17499,7190C17539,7220 17630,7286 17701,7335C17965,7519 18078,7599 18190,7679C18398,7827 18704,8054 18781,8117C18823,8151 18886,8196 18921,8218C18956,8239 19074,8317 19182,8391C19291,8465 19432,8560 19497,8602C19562,8644 19732,8763 19875,8866C20018,8969 20191,9092 20260,9138C20329,9185 20407,9240 20434,9261C20461,9283 20486,9300 20491,9300C20496,9300 20508,9283 20519,9263ZM21830,9278C21849,9272 21897,9265 21935,9261L22005,9255L21925,9195C21881,9162 21813,9103 21773,9063C21733,9024 21700,8996 21700,9002C21700,9008 21714,9055 21730,9107C21747,9160 21760,9222 21760,9251C21760,9296 21762,9301 21778,9295C21787,9291 21811,9283 21830,9278ZM20280,9281C20280,9267 20175,9180 20075,9110C20026,9076 19967,9033 19945,9015C19923,8998 19838,8936 19755,8879C19673,8823 19538,8730 19456,8673C19374,8616 19303,8570 19298,8570C19293,8570 19290,8578 19292,8587C19294,8596 19329,8624 19371,8649C19456,8701 19600,8807 19600,8819C19600,8823 19633,8851 19673,8881C19712,8910 19779,8967 19821,9005C20066,9229 20057,9223 20159,9257C20261,9292 20280,9295 20280,9281ZM17832,9256C17872,9243 17924,9227 17947,9221C17995,9208 18111,9117 18215,9011C18254,8971 18319,8913 18360,8882C18401,8851 18469,8798 18510,8765C18552,8732 18621,8683 18663,8656C18735,8610 18759,8580 18725,8580C18709,8580 18534,8696 18484,8739C18468,8754 18436,8777 18414,8790C18376,8813 18148,8978 18000,9090C17959,9121 17893,9168 17854,9193C17789,9236 17738,9280 17753,9280C17757,9280 17792,9269 17832,9256ZM16205,9134C16351,9036 16360,9028 16360,9006C16360,8994 16351,8974 16340,8960L16320,8935L16257,9002C16223,9039 16164,9092 16125,9121C16087,9149 16042,9184 16026,9197L15997,9221L16020,9245L16043,9270L16074,9235C16091,9217 16150,9171 16205,9134ZM22285,9240C22288,9235 22300,9230 22311,9230C22345,9230 22331,9211 22288,9200C22197,9176 22172,9166 22070,9106C21910,9013 21759,8853 21725,8743C21716,8710 21741,8722 21764,8761C21794,8812 21872,8895 21955,8965C22079,9068 22332,9187 22385,9166C22399,9161 22376,9148 22297,9116C22116,9042 22038,8989 21863,8823C21751,8718 21722,8680 21750,8680C21761,8680 21810,8723 21936,8841C22008,8909 22036,8927 22171,8993C22332,9072 22368,9084 22463,9095C22550,9106 22531,9088 22429,9063C22340,9042 22115,8943 22040,8894C21978,8853 21822,8689 21800,8643C21782,8604 21760,8593 21760,8622C21760,8628 21747,8654 21731,8679C21675,8767 21680,8816 21759,8920C21874,9073 22057,9206 22200,9240C22250,9251 22278,9252 22285,9240ZM19615,9151C19604,9141 19483,9057 19345,8964C19208,8872 19078,8783 19056,8766C19025,8742 19015,8739 19001,8748C18957,8778 18789,8881 18768,8890C18749,8899 18751,8900 18781,8895C18807,8891 18856,8901 18950,8930C19106,8978 19140,8994 19214,9055C19245,9080 19280,9100 19292,9100C19324,9100 19537,9140 19585,9155C19607,9162 19627,9168 19630,9169C19632,9169 19626,9162 19615,9151ZM16012,9111C16052,9084 16112,9037 16145,9007L16205,8953L16169,8869C16149,8823 16127,8761 16120,8732C16113,8702 16097,8666 16085,8652L16062,8625L16044,8647C16004,8694 15823,8840 15772,8866C15743,8881 15717,8896 15715,8900C15712,8905 15740,8946 15777,8992C15814,9037 15859,9094 15878,9118C15896,9141 15917,9160 15925,9160C15932,9160 15971,9138 16012,9111ZM22590,9021C22590,9016 22569,9009 22543,9006C22473,8996 22316,8943 22229,8899C22187,8878 22150,8863 22147,8866C22139,8874 21954,8692 21924,8647C21888,8592 21883,8609 21916,8672C21959,8751 22062,8851 22145,8892C22282,8961 22381,9002 22443,9015C22515,9031 22590,9034 22590,9021ZM22654,8964C22663,8961 22670,8953 22670,8948C22670,8942 22663,8941 22655,8944C22637,8951 22492,8918 22438,8896C22417,8887 22377,8875 22348,8869C22260,8850 22173,8796 22073,8697C22022,8647 21983,8604 21985,8601C21988,8599 22004,8610 22022,8626L22053,8655L22031,8623C22019,8605 22005,8588 21999,8584C21994,8581 21971,8556 21950,8528C21901,8466 21897,8482 21945,8548C21964,8575 21977,8600 21974,8603C21950,8626 22152,8830 22227,8858C22433,8934 22501,8954 22590,8963C22609,8965 22628,8968 22632,8968C22635,8969 22645,8967 22654,8964ZM22570,8851C22421,8798 22403,8787 22230,8643C22080,8518 22040,8479 21993,8415C21953,8360 21958,8398 21998,8457C22050,8533 22146,8629 22240,8698C22281,8729 22332,8769 22352,8787C22421,8847 22532,8888 22630,8889C22672,8889 22669,8887 22570,8851ZM16321,8843C16362,8808 16420,8718 16420,8688C16420,8656 16352,8590 16319,8590C16276,8590 16231,8621 16219,8659C16206,8699 16212,8816 16229,8848C16245,8878 16281,8876 16321,8843ZM22396,8855C22385,8847 22372,8840 22367,8840C22348,8840 22200,8721 22119,8640C22022,8544 21976,8486 21956,8440C21948,8421 21940,8412 21936,8419C21927,8433 21944,8465 21990,8520C22011,8545 22042,8589 22059,8617C22092,8671 22235,8801 22297,8834C22327,8850 22360,8860 22410,8869C22413,8869 22406,8863 22396,8855ZM22740,8861C22740,8856 22730,8849 22718,8845C22664,8830 22568,8783 22470,8724C22375,8667 22182,8511 22121,8442C22108,8427 22080,8395 22059,8372C22038,8348 22016,8331 22011,8335C22000,8341 22146,8520 22161,8520C22165,8520 22202,8551 22242,8588C22357,8695 22423,8740 22559,8807C22676,8864 22740,8883 22740,8861ZM19367,8809C19368,8791 19349,8767 19293,8713C19208,8631 19187,8625 19139,8668L19107,8697L19200,8748C19251,8777 19296,8800 19300,8800C19304,8800 19315,8809 19325,8820C19348,8845 19365,8841 19367,8809ZM22862,8783C22872,8774 22880,8763 22880,8759C22880,8755 22847,8742 22808,8729C22768,8717 22708,8695 22675,8680C22587,8640 22415,8523 22333,8446C22259,8377 22140,8233 22119,8186C22112,8172 22103,8160 22099,8160C22090,8160 22060,8213 22060,8228C22060,8233 22090,8277 22127,8326C22204,8429 22351,8576 22430,8630C22523,8693 22682,8770 22750,8784C22836,8803 22840,8803 22862,8783ZM15692,8734C15768,8696 15913,8551 15950,8476C15978,8421 15990,8350 15973,8350C15968,8350 15956,8371 15946,8398C15908,8493 15810,8600 15705,8661C15645,8695 15535,8734 15520,8725C15515,8722 15510,8726 15510,8734C15510,8778 15605,8778 15692,8734ZM15619,8648C15676,8613 15753,8557 15791,8522C15869,8450 15940,8350 15940,8312C15940,8291 15934,8296 15904,8346C15885,8378 15859,8416 15847,8429C15801,8479 15627,8611 15567,8641C15533,8657 15501,8675 15496,8680C15488,8688 15496,8710 15508,8710C15512,8710 15562,8682 15619,8648ZM20122,8650C20140,8640 20196,8621 20245,8610C20337,8588 20466,8523 20506,8479L20525,8457L20468,8464C20404,8472 20397,8465 20436,8429C20474,8393 20520,8319 20520,8293C20520,8263 20497,8263 20436,8294L20389,8318L20409,8285C20427,8253 20428,8251 20411,8236C20401,8227 20385,8220 20375,8220C20360,8220 20360,8217 20370,8205C20379,8194 20380,8186 20372,8178C20358,8164 20303,8183 20251,8221C20206,8253 20202,8248 20225,8193C20233,8174 20240,8156 20240,8154C20240,8142 20179,8184 20143,8221L20100,8264L20100,8227C20100,8207 20096,8190 20092,8190C20079,8190 20044,8231 20027,8266C20018,8283 20003,8303 19994,8311C19978,8324 19977,8323 19983,8300C19987,8286 19993,8265 19996,8253C20000,8239 19998,8230 19990,8230C19969,8230 19868,8334 19838,8388C19821,8416 19804,8440 19799,8440C19772,8440 19798,8476 19853,8515C19887,8540 19949,8584 19990,8614C20031,8644 20070,8669 20077,8669C20083,8670 20104,8661 20122,8650ZM22965,8661C22959,8656 22913,8638 22861,8619C22737,8576 22634,8512 22495,8395C22361,8283 22319,8236 22242,8120L22185,8035L22182,8072C22175,8159 22293,8305 22497,8461C22649,8577 22699,8607 22810,8646C22873,8668 22984,8679 22965,8661ZM15490,8599C15650,8522 15800,8388 15860,8270C15888,8215 15891,8201 15884,8167C15875,8127 15850,8103 15850,8135C15850,8182 15776,8280 15671,8374C15584,8451 15493,8510 15398,8550C15353,8569 15320,8589 15320,8597C15320,8610 15371,8639 15396,8640C15401,8640 15444,8622 15490,8599ZM23063,8562C23092,8531 23098,8518 23077,8526C23063,8531 23035,8525 22925,8495C22789,8457 22605,8337 22486,8208C22414,8131 22336,8020 22319,7971C22313,7954 22304,7940 22300,7940C22288,7940 22260,7982 22260,8000C22260,8029 22421,8229 22519,8322C22630,8428 22755,8504 22905,8557C23017,8596 23030,8597 23063,8562ZM15300,8460C15413,8404 15493,8350 15563,8281C15633,8214 15786,8023 15754,8043C15749,8046 15725,8022 15700,7989C15645,7916 15635,7928 15685,8006C15720,8060 15725,8090 15698,8090C15691,8090 15666,8067 15642,8040C15594,7985 15563,7971 15602,8023C15669,8111 15671,8116 15665,8143C15661,8158 15654,8170 15650,8170C15646,8170 15618,8141 15589,8105C15532,8034 15504,8017 15545,8078C15559,8098 15581,8132 15595,8152C15619,8189 15628,8220 15613,8220C15609,8220 15575,8187 15539,8148C15502,8108 15469,8078 15465,8082C15461,8086 15483,8119 15514,8157C15567,8221 15582,8250 15561,8250C15555,8250 15528,8225 15499,8195C15453,8146 15420,8126 15420,8147C15420,8151 15441,8175 15466,8201C15492,8227 15511,8253 15508,8260C15506,8266 15493,8256 15480,8237C15466,8218 15439,8190 15420,8174L15385,8146L15410,8176C15449,8220 15484,8290 15473,8301C15467,8307 15455,8294 15440,8268C15407,8207 15361,8150 15345,8150C15323,8150 15317,8170 15333,8188C15358,8216 15410,8315 15410,8334C15410,8367 15388,8345 15352,8275C15331,8236 15311,8205 15305,8205C15300,8205 15289,8201 15282,8196C15268,8187 15274,8203 15324,8311C15348,8363 15350,8400 15329,8400C15324,8400 15320,8392 15320,8382C15320,8361 15272,8282 15246,8261C15223,8242 15213,8256 15230,8283C15269,8344 15301,8412 15298,8427C15296,8437 15274,8410 15241,8357C15211,8309 15185,8272 15183,8274C15177,8280 15206,8335 15242,8388C15259,8412 15270,8434 15267,8436C15265,8439 15230,8411 15191,8375C15152,8339 15115,8310 15109,8310C15099,8310 15171,8403 15191,8416C15205,8424 15222,8460 15212,8460C15207,8460 15185,8441 15164,8418C15079,8327 15069,8318 15063,8323C15051,8336 15083,8390 15126,8430C15151,8453 15169,8474 15166,8477C15155,8489 15119,8464 15040,8390C14964,8319 14954,8312 14940,8326C14927,8339 14934,8350 15013,8427L15100,8513L15158,8508C15199,8504 15241,8490 15300,8460ZM23060,8443C23060,8429 23010,8347 22972,8297C22938,8252 22805,8133 22735,8083C22647,8021 22492,7960 22423,7960C22389,7960 22395,7980 22452,8056C22570,8211 22730,8335 22913,8411C22999,8447 23060,8460 23060,8443ZM19685,8197C19724,8175 19776,8142 19802,8124C19827,8105 19937,8031 20047,7958C20156,7886 20277,7804 20315,7775C20354,7746 20414,7707 20449,7687L20512,7652L20462,7645C20406,7638 20383,7619 20378,7578L20375,7550L20300,7608C20259,7639 20158,7710 20075,7765C19747,7982 19575,8111 19583,8134C19585,8140 19577,8152 19566,8161C19532,8189 19553,8192 19590,8165C19609,8151 19617,8140 19609,8139C19591,8139 19760,8051 19780,8051C19800,8051 19726,8091 19650,8122C19626,8132 19626,8133 19645,8140C19656,8144 19668,8143 19671,8138C19679,8126 19742,8109 19735,8121C19731,8126 19723,8130 19716,8130C19701,8130 19560,8249 19560,8262C19560,8268 19572,8264 19588,8254C19603,8244 19647,8218 19685,8197ZM15005,8173C15266,8040 15463,7861 15570,7658C15603,7594 15604,7592 15587,7566C15577,7552 15566,7540 15561,7540C15556,7540 15543,7566 15532,7598C15501,7680 15458,7743 15360,7841C15221,7981 15095,8066 14882,8161L14779,8208L14806,8229C14840,8256 14845,8254 15005,8173ZM18464,8229C18454,8217 18432,8201 18417,8193C18381,8175 18248,8068 18254,8063C18256,8060 18295,8083 18340,8114C18419,8168 18464,8189 18477,8176C18497,8157 18258,7969 17934,7750C17583,7512 17625,7534 17611,7580C17599,7620 17596,7622 17511,7633C17504,7634 17531,7657 17571,7684C17660,7743 17675,7754 17949,7938C18240,8134 18377,8220 18425,8235C18481,8253 18486,8253 18464,8229ZM18680,8153C18680,8137 18664,8122 18633,8106C18615,8097 18563,8059 18517,8022C18470,7985 18352,7900 18254,7832C18155,7765 18044,7685 18005,7655C17967,7625 17910,7587 17879,7570C17848,7554 17820,7534 17817,7526C17811,7512 17646,7400 17631,7400C17626,7400 17620,7407 17616,7415C17612,7425 17624,7439 17653,7456C17781,7536 17874,7598 17950,7655C18067,7743 18259,7877 18336,7925C18403,7967 18586,8108 18616,8141C18632,8159 18680,8168 18680,8153ZM19467,8075C19515,8042 19598,7984 19651,7945C19753,7871 19870,7791 20035,7683C20148,7609 20174,7587 20168,7570C20164,7557 20004,7662 19695,7878C19607,7940 19489,8023 19433,8062C19376,8101 19330,8137 19330,8140C19330,8156 19345,8159 19361,8148C19371,8141 19419,8108 19467,8075ZM14821,8099C14994,8031 15128,7947 15276,7813C15351,7745 15375,7717 15409,7651C15456,7560 15463,7514 15428,7524C15415,7527 15397,7530 15386,7530C15372,7530 15369,7535 15373,7553C15378,7573 15378,7573 15366,7558C15347,7533 15315,7536 15208,7571C15014,7634 14927,7710 14817,7912C14766,8007 14734,8120 14760,8120C14765,8120 14793,8111 14821,8099ZM19363,8006C19585,7852 19749,7736 19836,7672C19883,7637 19970,7577 20029,7538C20087,7499 20194,7423 20265,7370C20337,7317 20433,7247 20480,7215C20613,7122 20734,7030 20743,7014C20757,6990 20732,6972 20677,6965C20590,6954 20569,6966 20217,7214C20075,7315 20009,7360 19320,7825C19118,7961 19101,7974 19100,7988C19100,7994 19103,8000 19108,8000C19112,8000 19142,8020 19175,8045C19208,8070 19236,8090 19238,8090C19240,8090 19297,8052 19363,8006ZM20539,7513C20551,7499 20567,7462 20576,7431C20593,7367 20635,7234 20645,7208C20657,7178 20637,7188 20588,7236C20549,7274 20536,7296 20516,7360C20502,7403 20488,7461 20484,7489C20478,7536 20479,7540 20498,7540C20509,7540 20528,7528 20539,7513ZM17532,7513C17536,7495 17499,7338 17479,7289C17469,7264 17383,7184 17374,7192C17370,7197 17463,7470 17482,7508C17496,7534 17527,7537 17532,7513Z" style="fill-rule:nonzero;"/>
    </g>
    <g transform="matrix(0.1,0,0,-0.1,-1426,1533.86)">
        <path d="M15574,15210C15518,15186 15465,15128 15446,15072C15412,14974 15435,14904 15528,14819L15595,14758L15652,14764C15730,14772 15770,14790 15830,14846C15938,14947 15929,15078 15808,15184C15756,15230 15755,15230 15685,15229C15640,15229 15600,15222 15574,15210ZM15701,15084C15736,15067 15759,15020 15752,14984C15743,14934 15669,14904 15620,14930C15589,14946 15576,15002 15594,15043C15617,15099 15649,15111 15701,15084Z" style="fill-rule:nonzero;"/>
    </g>
    <g transform="matrix(0.1,0,0,-0.1,-1426,1533.86)">
        <path d="M16259,15120C16174,15105 16088,15022 16070,14937C16047,14826 16095,14733 16204,14680C16261,14652 16277,14648 16319,14653C16385,14661 16440,14690 16484,14741C16528,14793 16544,14839 16538,14899C16524,15041 16394,15144 16259,15120ZM16341,14970C16368,14955 16393,14902 16386,14874C16373,14822 16309,14794 16261,14820C16251,14825 16237,14843 16230,14860C16214,14898 16231,14944 16269,14965C16301,14982 16315,14983 16341,14970Z" style="fill-rule:nonzero;"/>
    </g>
    <g transform="matrix(0.1,0,0,-0.1,-1426,1533.86)">
        <path d="M15465,14626C15453,14587 15409,14351 15393,14234L15388,14203L15477,14181C15663,14136 16219,14020 16247,14020C16262,14020 16294,14086 16285,14100C16282,14104 16284,14120 16290,14135C16296,14150 16307,14201 16315,14248C16323,14296 16331,14344 16333,14355C16336,14366 16341,14398 16345,14427L16352,14479L16298,14494C16269,14503 16182,14521 16105,14535C16028,14549 15915,14569 15855,14580C15668,14614 15468,14638 15465,14626ZM15940,14449C16028,14431 16090,14414 16100,14404C16108,14395 16111,14386 16105,14384C16073,14371 16066,14358 16062,14300C16057,14231 16064,14220 16116,14220C16163,14220 16166,14237 16144,14378C16138,14417 16152,14419 16186,14385C16208,14363 16210,14355 16204,14303C16200,14271 16191,14230 16184,14212L16170,14178L16113,14184C16012,14195 15710,14250 15668,14265C15645,14273 15622,14276 15617,14273C15612,14270 15609,14273 15612,14281C15619,14304 15646,14302 15835,14266C15934,14247 16017,14233 16019,14236C16021,14238 16025,14273 16028,14315C16034,14409 16045,14403 15810,14436C15683,14453 15680,14454 15680,14477C15680,14496 15734,14491 15940,14449Z" style="fill-rule:nonzero;"/>
    </g>
    <g transform="matrix(0.1,0,0,-0.1,-1426,1533.86)">
        <path d="M18415,13464C18336,13445 18304,13436 18295,13430C18278,13418 18199,13402 18125,13395C18016,13385 18013,13384 18006,13345C18002,13326 18002,13287 18006,13259C18012,13215 18018,13205 18045,13189C18076,13170 18077,13168 18083,13082C18092,12942 18134,12855 18235,12770C18325,12695 18352,12686 18470,12685C18571,12685 18579,12686 18645,12720C18805,12801 18907,12966 18898,13128C18895,13193 18896,13195 18925,13209C18972,13232 19063,13229 19097,13204C19123,13184 19125,13177 19132,13090C19137,13009 19143,12987 19176,12921C19224,12827 19300,12748 19377,12712C19428,12688 19447,12685 19535,12685C19627,12685 19641,12688 19702,12717C19786,12757 19849,12814 19888,12887C19926,12960 19940,13011 19948,13114C19954,13184 19958,13195 19975,13199C19986,13201 19998,13207 20002,13214C20012,13229 20012,13378 20002,13384C19998,13386 19952,13393 19899,13399C19846,13405 19768,13422 19724,13437C19553,13495 19371,13465 19217,13353C19171,13319 19168,13318 19125,13329C19068,13343 18972,13343 18916,13328C18873,13317 18872,13317 18804,13365C18711,13431 18627,13461 18520,13466C18473,13467 18426,13467 18415,13464ZM18470,13358C18470,13351 18406,13283 18328,13208C18186,13072 18185,13071 18182,13102C18173,13184 18269,13309 18370,13348C18433,13372 18470,13376 18470,13358ZM19554,13361C19557,13356 19538,13333 19512,13310C19377,13187 19250,13055 19250,13036C19250,13009 19300,12923 19335,12888C19382,12841 19460,12809 19532,12807C19586,12806 19606,12810 19663,12838C19740,12876 19779,12918 19816,13007C19831,13042 19847,13070 19852,13070C19864,13070 19862,13057 19838,12983C19808,12891 19732,12812 19646,12786C19451,12725 19253,12849 19233,13044C19230,13074 19233,13113 19240,13134C19256,13184 19335,13287 19381,13317C19447,13361 19540,13384 19554,13361ZM18800,13043C18800,12970 18717,12854 18626,12800C18574,12769 18465,12761 18389,12783C18325,12802 18242,12870 18206,12933C18184,12972 18163,13050 18174,13050C18177,13050 18192,13026 18206,12998C18250,12910 18288,12870 18359,12837C18471,12784 18584,12803 18685,12891C18720,12922 18780,13027 18780,13058C18780,13064 18785,13070 18790,13070C18796,13070 18800,13058 18800,13043Z" style="fill-rule:nonzero;"/>
    </g>
    <g transform="matrix(0.1,0,0,-0.1,-1426,1533.86)">
        <path d="M18875,12858C18848,12837 18842,12806 18863,12793C18869,12789 18891,12780 18910,12775C18956,12761 18981,12698 18968,12632C18950,12546 18818,12456 18689,12442C18625,12435 18613,12426 18630,12400C18637,12389 18659,12385 18717,12385C18783,12386 18806,12391 18861,12417C18898,12434 18946,12465 18969,12485L19010,12522L19050,12487C19127,12417 19246,12374 19329,12386C19381,12393 19400,12405 19400,12430C19400,12444 19387,12448 19328,12454C19175,12468 19050,12563 19050,12665C19050,12718 19085,12780 19114,12780C19143,12780 19170,12804 19170,12830C19170,12866 19132,12878 19013,12878C18916,12878 18897,12875 18875,12858Z" style="fill-rule:nonzero;"/>
    </g>
    <g transform="matrix(0.1,0,0,-0.1,-1426,1533.86)">
        <path d="M18540,12610C18493,12600 18435,12584 18410,12575C18385,12566 18331,12550 18290,12539C18182,12510 18118,12480 18124,12463C18128,12455 18130,12447 18130,12445C18130,12444 18172,12455 18223,12470C18273,12486 18388,12519 18478,12545C18581,12575 18640,12597 18640,12606C18640,12628 18628,12628 18540,12610Z" style="fill-rule:nonzero;"/>
    </g>
    <g transform="matrix(0.1,0,0,-0.1,-1426,1533.86)">
        <path d="M19372,12613C19375,12594 19434,12571 19530,12550C19605,12534 19826,12471 19866,12454C19907,12437 19920,12436 19920,12452C19920,12480 19879,12503 19764,12539C19640,12579 19430,12630 19391,12630C19375,12630 19370,12625 19372,12613Z" style="fill-rule:nonzero;"/>
    </g>
    <g transform="matrix(0.1,0,0,-0.1,-1426,1533.86)">
        <path d="M18505,12479C18321,12366 18185,12250 18192,12214C18194,12200 18204,12204 18245,12240C18295,12284 18345,12318 18548,12445C18609,12484 18659,12521 18660,12528C18661,12557 18600,12538 18505,12479Z" style="fill-rule:nonzero;"/>
    </g>
    <g transform="matrix(0.1,0,0,-0.1,-1426,1533.86)">
        <path d="M19375,12522C19386,12511 19418,12489 19445,12474C19541,12422 19694,12315 19762,12253C19852,12170 19879,12168 19821,12248C19748,12347 19495,12516 19389,12536L19355,12542L19375,12522Z" style="fill-rule:nonzero;"/>
    </g>
    <g transform="matrix(0.1,0,0,-0.1,-1426,1533.86)">
        <path d="M18970,12245C18970,12209 19019,12133 19051,12120C19079,12108 19087,12109 19125,12129C19170,12153 19205,12203 19199,12235C19192,12267 19164,12264 19150,12230C19143,12213 19129,12195 19119,12189C19103,12181 19096,12185 19079,12215C19056,12254 19045,12258 19036,12234C19030,12219 19027,12219 19007,12239C18980,12264 18970,12266 18970,12245Z" style="fill-rule:nonzero;"/>
    </g>
    <g transform="matrix(0.1,0,0,-0.1,-1426,1533.86)">
        <path d="M19086,11768C19038,11670 19025,11654 19006,11669C18998,11676 18973,11712 18950,11751C18913,11813 18880,11840 18880,11808C18881,11747 18941,11619 18990,11575C19010,11557 19012,11557 19055,11600C19079,11624 19109,11666 19120,11693C19144,11749 19152,11831 19133,11837C19127,11839 19106,11808 19086,11768Z" style="fill-rule:nonzero;"/>
    </g>
    <g transform="matrix(0.1,0,0,-0.1,-1426,1533.86)">
        <path d="M22944,11776C22871,11759 22805,11727 22796,11705C22784,11673 22790,11612 22808,11589C22818,11576 22843,11536 22863,11500C22926,11388 22943,11376 23020,11386C23085,11395 23120,11433 23189,11570C23254,11700 23256,11736 23197,11767C23155,11788 23020,11793 22944,11776Z" style="fill-rule:nonzero;"/>
    </g>
    <g transform="matrix(0.1,0,0,-0.1,-1426,1533.86)">
        <path d="M23342,11655C23303,11622 23179,11424 23173,11384C23169,11358 23174,11345 23205,11311C23226,11288 23253,11267 23265,11264C23307,11254 23560,11317 23589,11345C23612,11368 23570,11484 23510,11562C23468,11616 23396,11680 23376,11680C23374,11680 23358,11669 23342,11655Z" style="fill-rule:nonzero;"/>
    </g>
    <g transform="matrix(0.1,0,0,-0.1,-1426,1533.86)">
        <path d="M22628,11609C22557,11572 22486,11461 22454,11338C22428,11239 22463,11218 22657,11216C22787,11215 22809,11225 22848,11302C22869,11344 22870,11351 22857,11381C22820,11470 22699,11632 22671,11630C22668,11629 22648,11620 22628,11609Z" style="fill-rule:nonzero;"/>
    </g>
    <g transform="matrix(0.1,0,0,-0.1,-1426,1533.86)">
        <path d="M22952,11313C22897,11286 22882,11258 22881,11180C22881,11115 22882,11110 22911,11086C22982,11026 23064,11027 23124,11089C23156,11122 23164,11138 23168,11179C23170,11209 23167,11243 23160,11260C23135,11321 23025,11349 22952,11313ZM23078,11234C23103,11206 23105,11193 23089,11153C23076,11118 23064,11110 23017,11110C22983,11110 22978,11114 22958,11154C22938,11197 22937,11200 22954,11225C22987,11275 23037,11278 23078,11234Z" style="fill-rule:nonzero;"/>
    </g>
    <g transform="matrix(0.1,0,0,-0.1,-1426,1533.86)">
        <path d="M23470,11243C23456,11241 23402,11228 23350,11214C23240,11185 23218,11167 23195,11085C23180,11033 23180,11030 23201,10988C23236,10918 23321,10801 23352,10779C23371,10765 23389,10760 23404,10764C23436,10772 23552,10897 23577,10952C23629,11061 23646,11203 23612,11233C23594,11250 23533,11254 23470,11243Z" style="fill-rule:nonzero;"/>
    </g>
    <g transform="matrix(0.1,0,0,-0.1,-1426,1533.86)">
        <path d="M22493,11149C22453,11138 22445,11112 22453,11030C22466,10908 22535,10794 22621,10750C22669,10725 22681,10725 22714,10751C22741,10772 22814,10878 22850,10950C22882,11012 22874,11055 22817,11133L22796,11160L22661,11159C22586,11159 22510,11154 22493,11149Z" style="fill-rule:nonzero;"/>
    </g>
    <g transform="matrix(0.1,0,0,-0.1,-1426,1533.86)">
        <path d="M22971,10981C22943,10974 22887,10896 22840,10803C22816,10754 22810,10729 22812,10693C22815,10652 22819,10644 22846,10628C22898,10597 23018,10594 23125,10619C23284,10657 23297,10697 23199,10853C23125,10971 23103,10990 23041,10989C23016,10988 22984,10985 22971,10981Z" style="fill-rule:nonzero;"/>
    </g>
    <g transform="matrix(0.1,0,0,-0.1,-1426,1533.86)">
        <path d="M15115,11720C15000,11701 14890,11661 14860,11626C14841,11602 14831,11533 14841,11494C14858,11434 15015,11244 15074,11213C15112,11193 15280,11194 15318,11214C15386,11250 15531,11429 15561,11513C15572,11545 15572,11557 15560,11593C15548,11627 15536,11640 15495,11662C15392,11719 15248,11740 15115,11720ZM15378,11626C15433,11606 15480,11573 15480,11554C15480,11543 15470,11545 15438,11564C15311,11638 15119,11637 14976,11562C14948,11547 14922,11534 14918,11532C14913,11530 14910,11537 14910,11548C14910,11572 15028,11629 15103,11641C15177,11652 15327,11644 15378,11626Z" style="fill-rule:nonzero;"/>
    </g>
    <g transform="matrix(0.1,0,0,-0.1,-1426,1533.86)">
        <path d="M15695,11440C15654,11423 15444,11186 15434,11145C15426,11114 15484,10928 15508,10907C15567,10856 15826,10755 15874,10766C15958,10783 15989,10841 15990,10976C15990,11202 15866,11451 15753,11449C15732,11449 15706,11445 15695,11440Z" style="fill-rule:nonzero;"/>
    </g>
    <g transform="matrix(0.1,0,0,-0.1,-1426,1533.86)">
        <path d="M14581,11392C14550,11360 14531,11330 14524,11300C14517,11275 14503,11230 14492,11200C14481,11170 14467,11125 14460,11100C14453,11075 14443,11043 14438,11028C14423,10987 14426,10889 14444,10848C14459,10813 14513,10770 14542,10770C14593,10770 14857,10875 14893,10910C14924,10939 14970,11054 14970,11101C14970,11148 14939,11197 14839,11308C14741,11418 14710,11440 14659,11440C14633,11440 14617,11430 14581,11392Z" style="fill-rule:nonzero;"/>
    </g>
    <g transform="matrix(0.1,0,0,-0.1,-1426,1533.86)">
        <path d="M15150,11142C15131,11133 15112,11114 15107,11100C15101,11083 15085,11070 15066,11064C15026,11052 14997,11002 14998,10945C15000,10887 15012,10865 15087,10797C15172,10720 15196,10720 15313,10796C15424,10868 15433,10893 15394,11023C15386,11049 15318,11093 15308,11077C15303,11069 15300,11072 15300,11086C15300,11111 15270,11134 15218,11148C15190,11156 15175,11154 15150,11142ZM15308,10928C15302,10844 15292,10836 15196,10843C15135,10847 15113,10853 15103,10866C15087,10888 15086,10970 15102,11021C15111,11053 15117,11059 15134,11055C15146,11052 15182,11053 15215,11058L15275,11066L15293,11025C15306,10997 15311,10969 15308,10928Z" style="fill-rule:nonzero;"/>
    </g>
    <g transform="matrix(0.1,0,0,-0.1,-1426,1533.86)">
        <path d="M14858,10785C14784,10758 14646,10685 14614,10658C14514,10570 14571,10422 14753,10298C14887,10207 15004,10173 15070,10207C15126,10236 15142,10281 15147,10428C15155,10606 15142,10662 15081,10718C14998,10795 14936,10814 14858,10785Z" style="fill-rule:nonzero;"/>
    </g>
    <g transform="matrix(0.1,0,0,-0.1,-1426,1533.86)">
        <path d="M15431,10790C15382,10769 15281,10686 15269,10657C15251,10614 15251,10328 15268,10279C15299,10192 15375,10170 15499,10213C15631,10259 15738,10337 15817,10444C15864,10507 15872,10549 15846,10598C15822,10644 15789,10667 15653,10729C15512,10793 15469,10805 15431,10790ZM15773,10556C15781,10535 15738,10461 15686,10409C15640,10363 15539,10303 15460,10275C15428,10264 15413,10263 15397,10272C15377,10282 15379,10284 15425,10300C15502,10326 15622,10388 15653,10418C15689,10452 15740,10532 15740,10553C15740,10574 15766,10576 15773,10556Z" style="fill-rule:nonzero;"/>
    </g>
    <g transform="matrix(0.1,0,0,-0.1,-1426,1533.86)">
        <path d="M17885,10764C17861,10740 17868,10632 17898,10575C17931,10510 17992,10462 18019,10480C18029,10485 18022,10500 17996,10534C17961,10581 17930,10661 17930,10709C17929,10723 17923,10746 17916,10758C17904,10781 17903,10781 17885,10764Z" style="fill-rule:nonzero;"/>
    </g>
    <g transform="matrix(0.1,0,0,-0.1,-1426,1533.86)">
        <path d="M17865,10148C17877,10094 17916,10027 17962,9983C18011,9935 18065,9917 18076,9945C18081,9958 18067,9977 18021,10018C17986,10048 17941,10097 17919,10127C17873,10188 17855,10195 17865,10148Z" style="fill-rule:nonzero;"/>
    </g>
    <g transform="matrix(0.1,0,0,-0.1,-1426,1533.86)">
        <path d="M18428,9475C18411,9437 18433,9377 18484,9325C18507,9300 18531,9280 18536,9280C18541,9281 18558,9291 18574,9304L18602,9328L18557,9374C18532,9399 18508,9430 18505,9442C18496,9472 18470,9500 18453,9500C18446,9500 18434,9489 18428,9475Z" style="fill-rule:nonzero;"/>
    </g>
    <g transform="matrix(0.1,0,0,-0.1,-1426,1533.86)">
        <path d="M19017,9332C18983,9309 18961,9280 18960,9258C18960,9248 18953,9240 18944,9240C18931,9240 18931,9237 18946,9211C18955,9196 18976,9175 18992,9166C19019,9149 19022,9150 19058,9167C19104,9190 19126,9228 19103,9245C19091,9254 19089,9266 19093,9288C19105,9350 19073,9368 19017,9332Z" style="fill-rule:nonzero;"/>
    </g>
    <g transform="matrix(0.1,0,0,-0.1,-1426,1533.86)">
        <path d="M18665,9211C18623,9192 18570,9139 18570,9116C18570,9067 18663,9020 18759,9020C18820,9020 18896,9049 18906,9075C18921,9114 18854,9197 18791,9219C18744,9234 18712,9233 18665,9211Z" style="fill-rule:nonzero;"/>
    </g>
    <g transform="matrix(0.1,0,0,-0.1,-1426,1533.86)">
        <path d="M15911,9014C15887,8987 15868,8953 15864,8932C15858,8899 15860,8893 15901,8857C15925,8835 15962,8809 15983,8798C16021,8779 16021,8779 16055,8800C16131,8847 16155,8926 16109,8976C16067,9022 16008,9060 15979,9060C15959,9060 15941,9048 15911,9014Z" style="fill-rule:nonzero;"/>
    </g>
    <g transform="matrix(0.1,0,0,-0.1,-1426,1533.86)">
        <path d="M23415,14180C23310,14153 23226,14110 23222,14081C23219,14061 23221,14059 23242,14066C23255,14070 23327,14090 23403,14111C23480,14132 23548,14155 23556,14161C23594,14192 23506,14204 23415,14180Z" style="fill-rule:nonzero;"/>
    </g>
    <g transform="matrix(0.1,0,0,-0.1,-1426,1533.86)">
        <path d="M23247,13778C23211,13750 23245,13743 23433,13736L23622,13728L23618,13752C23616,13771 23607,13776 23570,13782C23488,13794 23265,13791 23247,13778Z" style="fill-rule:nonzero;"/>
    </g>
    <g transform="matrix(0.1,0,0,-0.1,-1426,1533.86)">
        <path d="M23220,13595C23220,13576 23233,13571 23432,13514C23561,13477 23594,13471 23601,13482C23606,13489 23608,13500 23607,13505C23601,13525 23512,13560 23401,13585C23268,13614 23220,13617 23220,13595Z" style="fill-rule:nonzero;"/>
    </g>
    <g transform="matrix(0.1,0,0,-0.1,-1426,1533.86)">
        <path d="M23210,13426C23210,13408 23234,13392 23372,13312C23483,13247 23532,13230 23545,13250C23558,13271 23518,13299 23379,13370C23238,13442 23210,13451 23210,13426Z" style="fill-rule:nonzero;"/>
    </g>
    <g transform="matrix(0.1,0,0,-0.1,-1426,1533.86)">
        <path d="M23270,8291C23270,8275 23299,8263 23443,8216C23854,8084 23903,8074 23885,8122C23874,8151 23780,8185 23550,8246C23520,8254 23457,8272 23410,8286C23306,8316 23270,8317 23270,8291Z" style="fill-rule:nonzero;"/>
    </g>
    <g transform="matrix(0.1,0,0,-0.1,-1426,1533.86)">
        <path d="M23150,8093C23151,8071 23170,8057 23291,7987C23472,7883 23541,7856 23526,7896C23523,7905 23520,7913 23520,7915C23520,7932 23197,8110 23167,8110C23157,8110 23150,8102 23150,8093Z" style="fill-rule:nonzero;"/>
    </g>
    <g transform="matrix(0.1,0,0,-0.1,-1426,1533.86)">
        <path d="M22950,7950C22950,7926 23148,7718 23163,7727C23169,7730 23170,7728 23166,7722C23157,7706 23182,7658 23245,7575C23314,7482 23364,7430 23384,7430C23416,7430 23398,7462 23298,7581C23241,7647 23181,7725 23163,7753C23126,7813 22980,7970 22962,7970C22956,7970 22950,7961 22950,7950Z" style="fill-rule:nonzero;"/>
    </g>
    <g transform="matrix(0.1,0,0,-0.1,-1426,1533.86)">
        <path d="M22780,7823C22780,7800 22917,7532 22943,7503C22966,7477 22990,7473 22990,7495C22990,7503 22963,7563 22929,7628C22842,7796 22780,7877 22780,7823Z" style="fill-rule:nonzero;"/>
    </g>
    <g transform="matrix(0.1,0,0,-0.1,-1426,1533.86)">
        <path d="M22570,7736C22570,7723 22590,7632 22614,7534C22638,7435 22664,7326 22672,7290C22683,7235 22689,7224 22708,7222C22738,7217 22737,7237 22701,7408C22664,7576 22615,7740 22598,7751C22577,7765 22570,7761 22570,7736Z" style="fill-rule:nonzero;"/>
    </g>
</svg>
